<?xml version="1.0" standalone="no"?>
<!DOCTYPE svg PUBLIC "-//W3C//DTD SVG 1.1//EN" "http://www.w3.org/Graphics/SVG/1.1/DTD/svg11.dtd" >
<svg xmlns="http://www.w3.org/2000/svg" xmlns:xlink="http://www.w3.org/1999/xlink" version="1.1">
    <metadata></metadata>
    <defs>
        <font id="pluto_sans_dpdextralight" horiz-adv-x="1636">
            <font-face units-per-em="2048" ascent="1536" descent="-512"/>
            <missing-glyph horiz-adv-x="501"/>
            <glyph horiz-adv-x="0"/>
            <glyph horiz-adv-x="0"/>
            <glyph horiz-adv-x="682"/>
            <glyph unicode=" " horiz-adv-x="501"/>
            <glyph unicode="&#x09;" horiz-adv-x="501"/>
            <glyph unicode="&#xa0;" horiz-adv-x="501"/>
            <glyph unicode="!" horiz-adv-x="448"
                   d="M135 74q0 94 88 94q43 0 66.5 -24.5t23.5 -69.5q0 -47 -23.5 -72t-66.5 -25q-88 0 -88 97zM176 1391h92l-8 -988h-74z"/>
            <glyph unicode="&#x22;" horiz-adv-x="802" d="M158 1393h78l-3 -484h-73zM567 1393h78l-2 -484h-74z"/>
            <glyph unicode="#" horiz-adv-x="1390"
                   d="M76 334v78h221l145 581h-188v78h209l80 322h78v-9l-78 -313h477l82 322h78v-9l-78 -313h213v-78h-232l-147 -581h201v-78h-219l-82 -334h-80v10l80 324h-478l-82 -334h-79v10l82 324h-203zM379 412h477l145 581h-477z"/>
            <glyph unicode="$" horiz-adv-x="1222"
                   d="M104 1038q0 72 28.5 135.5t84.5 115.5t149.5 84.5t213.5 37.5v166h65v-166q124 -3 248 -36t205 -77l-31 -84q-68 42 -189.5 75t-232.5 36v-575l107 -25q189 -46 283.5 -123.5t94.5 -216.5q0 -173 -132.5 -282t-352.5 -121v-244h-65v242q-133 3 -263.5 40t-201.5 82l24 86 q71 -43 195 -81t246 -41v608l-144 33q-161 37 -246.5 120.5t-85.5 210.5zM197 1044q0 -95 64.5 -155.5t193.5 -91.5l125 -31v559q-99 -4 -174 -29t-120 -64t-67 -86.5t-22 -101.5zM645 68q177 9 285 93.5t108 219.5q0 101 -76 162t-233 96l-84 18v-589z"/>
            <glyph unicode="%" horiz-adv-x="1671"
                   d="M76 1065q0 150 98 248t250 98q153 0 250.5 -98t97.5 -248q0 -149 -97.5 -246.5t-250.5 -97.5q-152 0 -250 98t-98 246zM152 1065q0 -116 76.5 -193t195.5 -77t195.5 77t76.5 193q0 118 -76.5 195t-195.5 77t-195.5 -77t-76.5 -195zM406 0v10l745 1383h86v-9l-745 -1384 h-86zM901 322q0 150 98 249t250 99q153 0 250.5 -99t97.5 -249q0 -149 -97.5 -245.5t-250.5 -96.5q-152 0 -250 97t-98 245zM977 322q0 -116 76.5 -192.5t195.5 -76.5t196 76.5t77 192.5q0 119 -76.5 196.5t-196.5 77.5q-119 0 -195.5 -77.5t-76.5 -196.5z"/>
            <glyph unicode="&#x26;" horiz-adv-x="1398"
                   d="M119 344q0 61 22 114.5t55.5 92t83.5 74t93 57.5t98 45q-5 5 -38 37.5t-41.5 41.5t-35.5 39t-36.5 44.5t-28 43t-25.5 49.5t-13.5 49t-6.5 56q0 148 104.5 237t284.5 89q168 0 281.5 -91.5t113.5 -229.5q0 -84 -25.5 -145.5t-90.5 -107.5t-107 -67t-143 -61 q-27 -11 -41 -17l413 -395q157 193 209 471l80 -37q-66 -296 -225 -493l239 -226v-14h-116l-187 178q-193 -196 -456 -196q-213 0 -337 97t-124 265zM209 346q0 -128 101.5 -205.5t275.5 -77.5q221 0 387 177l-438 424q-53 -22 -90.5 -39.5t-85.5 -47.5t-78 -61t-51 -75.5 t-21 -94.5zM334 1085q0 -25 6 -49.5t21 -50.5t26.5 -45t37 -46.5t36.5 -39.5t40 -40.5t34 -33.5l24 -24l117 45q137 50 200.5 113.5t63.5 170.5q0 103 -89 174.5t-216 71.5q-145 0 -223 -67.5t-78 -178.5z"/>
            <glyph unicode="'" horiz-adv-x="393" d="M158 1393h78l-3 -484h-73z"/>
            <glyph unicode="(" horiz-adv-x="532"
                   d="M111 535q0 142 22 278t54.5 235t74.5 187t77 140t67 89l59 -39q-41 -55 -80.5 -126t-86 -183t-75 -264t-28.5 -317q0 -132 20 -259.5t49 -220.5t68.5 -179.5t70 -137.5t62.5 -94l-59 -39q-32 36 -67 89t-77 141t-74.5 187.5t-54.5 235t-22 277.5z"/>
            <glyph unicode=")" horiz-adv-x="532"
                   d="M68 -356q32 43 62.5 94t70 137.5t68.5 179.5t49 220.5t20 259.5q0 165 -28.5 317t-75 264t-86 183t-80.5 126l59 39q32 -37 66.5 -89t77 -140t74.5 -187t54.5 -235t22.5 -278t-22 -277.5t-54.5 -235t-75 -187.5t-77 -140.5t-66.5 -89.5z"/>
            <glyph unicode="*" horiz-adv-x="950"
                   d="M106 1081l23 76l309 -86l-4 322h80l-4 -322l311 86l23 -76l-314 -80l170 -278l-63 -41l-166 276l-160 -276l-63 39l166 283z"/>
            <glyph unicode="+" horiz-adv-x="1128" d="M104 580v77h420v422h78v-422h422v-77h-422v-420h-78v420h-420z"/>
            <glyph unicode="," horiz-adv-x="466"
                   d="M139 -322l101 295q-49 3 -74 27.5t-25 60.5q0 49 24 75t68 26t69.5 -29t25.5 -72q0 -73 -47 -209t-82 -198z"/>
            <glyph unicode="-" horiz-adv-x="1042" d="M152 580v79h739v-79h-739z"/>
            <glyph unicode="." horiz-adv-x="460"
                   d="M141 74q0 46 22.5 70t63.5 24q44 0 68 -24t24 -70q0 -47 -24 -72t-68 -25q-41 0 -63.5 25t-22.5 72z"/>
            <glyph unicode="/" horiz-adv-x="972" d="M72 0v10l745 1383h86v-9l-745 -1384h-86z"/>
            <glyph unicode="0" horiz-adv-x="1400"
                   d="M121 694q0 127 20.5 234.5t65.5 198t111.5 153.5t163 98t216.5 35q151 0 264.5 -53.5t182.5 -151t103 -226t34 -288.5q0 -158 -34 -286t-103 -225t-182.5 -150t-264.5 -53q-149 0 -261.5 53t-180.5 150t-101.5 225t-33.5 286zM209 694q0 -137 27 -248t83.5 -198 t152.5 -134.5t226 -47.5q131 0 228.5 47.5t155 134.5t85 198t27.5 248q0 139 -27.5 251t-85 199t-155 135t-228.5 48q-130 0 -226 -48t-152.5 -135t-83.5 -199t-27 -251z"/>
            <glyph unicode="1" horiz-adv-x="872" d="M43 1126l590 267h76v-1393h-91v1290l-542 -237z"/>
            <glyph unicode="2" horiz-adv-x="1234"
                   d="M104 948q6 210 138 337.5t370 127.5q119 0 212 -34.5t150 -94.5t86.5 -138t29.5 -169q0 -143 -69.5 -262t-225.5 -236l-529 -397h871v-82h-1014v76l606 461q140 105 205 207t65 227q0 158 -99 257t-290 99q-199 0 -308 -107.5t-112 -281.5z"/>
            <glyph unicode="3" horiz-adv-x="1261"
                   d="M123 78l29 80q206 -97 438 -97q199 0 332 87.5t133 236.5q0 135 -101.5 215t-289.5 80h-379v82h379q81 0 147.5 24.5t108 65t64 90.5t22.5 105q0 134 -116.5 209t-299.5 75q-127 0 -240.5 -32t-187.5 -72l-31 78q84 43 203.5 75.5t255.5 32.5q231 0 368.5 -95t137.5 -265 q0 -121 -77 -215t-204 -111q157 -27 243.5 -116t86.5 -234q0 -123 -71 -213.5t-196 -137t-288 -46.5q-224 0 -467 98z"/>
            <glyph unicode="4" horiz-adv-x="1394"
                   d="M51 322v71l846 1000h113v-990h325v-81h-325v-322h-86v322h-873zM158 403h766v895z"/>
            <glyph unicode="5" horiz-adv-x="1251"
                   d="M94 84l31 78q196 -101 448 -101q74 0 141.5 12t130.5 40.5t109 70.5t73.5 106t27.5 144q0 85 -36 146.5t-102.5 96.5t-149.5 51.5t-187 16.5h-396l-6 7l53 641h871v-82h-793l-41 -486h316q124 0 224 -21.5t177.5 -67t119.5 -121.5t42 -179q0 -118 -48 -208.5t-130.5 -143 t-181.5 -78.5t-212 -26q-91 0 -170.5 10.5t-142 29.5t-95.5 32t-73 32z"/>
            <glyph unicode="6" horiz-adv-x="1361"
                   d="M117 698q0 212 72 372.5t213 251.5t335 91q150 0 272.5 -42.5t192.5 -96.5l-41 -76q-65 53 -174.5 93t-243.5 40q-250 0 -393 -172t-143 -461q0 -42 2 -65q216 299 534 299q237 0 375.5 -124t138.5 -343q0 -213 -149 -349t-375 -136q-290 0 -453 195t-163 523zM221 528 q38 -211 170 -336.5t342 -125.5q186 0 310 113.5t124 285.5q0 184 -119 284.5t-313 100.5q-92 0 -176.5 -30t-148 -80.5t-109.5 -102.5t-80 -109z"/>
            <glyph unicode="7" horiz-adv-x="1056" d="M51 1311v82h981v-74l-645 -1319h-102v10l645 1301h-879z"/>
            <glyph unicode="8" horiz-adv-x="1335"
                   d="M115 377q0 146 98.5 236t271.5 114q-144 17 -232.5 111t-88.5 215q0 170 137 265t367 95q229 0 366 -95t137 -265q0 -121 -88.5 -215t-232.5 -111q173 -24 272 -114t99 -236q0 -184 -153.5 -290.5t-399.5 -106.5q-247 0 -400 106.5t-153 290.5zM205 383 q0 -148 131.5 -235t331.5 -87q199 0 329.5 87t130.5 235q0 137 -112 215t-344 78q-235 0 -351 -78.5t-116 -214.5zM254 1051q0 -118 103.5 -200.5t314.5 -82.5q106 0 187.5 24t128.5 65t70 90t23 104q0 92 -54 156.5t-146 95t-213 30.5q-187 0 -300.5 -72.5t-113.5 -209.5z "/>
            <glyph unicode="9" horiz-adv-x="1361"
                   d="M104 928q0 213 149.5 349t375.5 136q288 0 452 -195.5t164 -523.5q0 -158 -42 -289.5t-120 -225.5t-195.5 -146.5t-262.5 -52.5q-150 0 -272.5 42.5t-192.5 96.5l41 76q65 -53 174 -93.5t243 -40.5q250 0 393.5 172.5t143.5 460.5q0 12 -1 34t-1 34q-210 -301 -537 -301 q-236 0 -374 124t-138 343zM195 928q0 -184 119 -284.5t313 -100.5q74 0 144 20.5t124 52.5t103 75.5t82.5 85t60.5 85.5q-38 211 -170.5 338t-341.5 127q-186 0 -310 -113.5t-124 -285.5z"/>
            <glyph unicode=":" horiz-adv-x="479"
                   d="M152 72q0 46 22.5 70t63.5 24q90 0 90 -94q0 -95 -90 -95q-41 0 -63.5 24.5t-22.5 70.5zM152 1006q0 46 22.5 70t63.5 24q90 0 90 -94q0 -95 -90 -95q-86 0 -86 95z"/>
            <glyph unicode=";" horiz-adv-x="501"
                   d="M160 -319l100 292q-49 3 -73.5 27.5t-24.5 60.5q0 99 90 99q44 0 69 -28.5t25 -70.5q0 -74 -47.5 -211.5t-81.5 -193.5zM160 1006q0 94 88 94q43 0 66.5 -24.5t23.5 -69.5q0 -95 -90 -95q-88 0 -88 95z"/>
            <glyph unicode="&#x3c;" horiz-adv-x="1132" d="M78 582v75l909 437h8v-80l-837 -393l837 -394v-80h-8z"/>
            <glyph unicode="=" horiz-adv-x="1230" d="M156 291v78h919v-78h-919zM156 870v78h919v-78h-919z"/>
            <glyph unicode="&#x3e;" horiz-adv-x="1132"
                   d="M137 147v80l838 394l-838 393v80h8l910 -437v-75l-910 -435h-8z"/>
            <glyph unicode="?" horiz-adv-x="929"
                   d="M78 1219q50 84 142.5 139t234.5 55q165 0 270.5 -96t105.5 -250q0 -51 -11.5 -96t-25 -75t-42.5 -65t-46 -51.5t-53 -49.5q-8 -7 -12 -11l-141 -129q-39 -36 -51.5 -59.5t-12.5 -63.5q0 -26 10 -64h-84q-10 57 -10 70q0 52 19.5 88t68.5 80l142 131q39 37 59.5 59 t47.5 60t39.5 80t12.5 92q0 123 -84 196.5t-211 73.5q-118 0 -198 -50t-123 -128zM319 74q0 46 23 70t66 24t66.5 -24.5t23.5 -69.5q0 -47 -23.5 -72t-66.5 -25t-66 25t-23 72z"/>
            <glyph unicode="@" horiz-adv-x="2060"
                   d="M102 539q0 198 71 372t194 297t295.5 194t369.5 71q198 0 369 -62.5t290 -171t187 -259t68 -321.5q0 -155 -37 -279t-99 -200.5t-138 -116.5t-159 -40q-85 0 -126 35.5t-52 105.5q-59 -62 -148.5 -101.5t-193.5 -39.5q-214 0 -344.5 138t-130.5 357q0 222 131 363 t344 141q103 0 191 -37.5t147 -97.5v119h88v-783q0 -66 25 -97.5t92 -31.5q59 0 117 35t107.5 102t80.5 178.5t31 249.5q0 157 -61.5 294t-170.5 235.5t-266.5 155.5t-341.5 57q-183 0 -342.5 -65t-272 -178t-177 -273.5t-64.5 -345.5q0 -183 64.5 -343.5t177 -275 t272 -180.5t342.5 -66q214 0 398 88l28 -65q-196 -94 -426 -94q-196 0 -369 72t-296 196t-194 297.5t-71 370.5zM608 518q0 -184 110 -300t294 -116q95 0 179 41.5t140 100.5v553q-52 61 -136.5 103t-182.5 42q-184 0 -294 -118.5t-110 -305.5z"/>
            <glyph unicode="A" horiz-adv-x="1357"
                   d="M25 0l612 1393h100l578 -1393h-92l-150 356h-799l-157 -356h-92zM303 432h744l-361 866z"/>
            <glyph unicode="B" horiz-adv-x="1329"
                   d="M205 0v1393h465q215 0 334.5 -89t119.5 -268q0 -119 -69.5 -198.5t-192.5 -114.5q178 -24 275.5 -114t97.5 -249q0 -168 -120 -264t-351 -96h-559zM295 82h461q187 0 286 75t99 210q0 155 -114.5 231t-319.5 76h-412v-592zM295 756h350q175 0 281 70t106 204 q0 144 -97 212.5t-273 68.5h-367v-555z"/>
            <glyph unicode="C" horiz-adv-x="1449"
                   d="M100 696q0 151 55 284t150.5 228t229 150t284.5 55q168 0 308 -60t239 -173l-47 -66q-91 100 -219 156.5t-281 56.5q-177 0 -320.5 -82t-224.5 -226.5t-81 -322.5t81 -322t224.5 -226t320.5 -82q153 0 281 56.5t219 156.5l47 -66q-99 -113 -239 -173t-308 -60 q-202 0 -367 93.5t-258.5 257.5t-93.5 365z"/>
            <glyph unicode="D" horiz-adv-x="1542"
                   d="M205 0v1393h512q155 -1 286 -47t227.5 -132.5t151 -220t54.5 -299.5q0 -165 -54.5 -297.5t-151 -218.5t-227.5 -132t-286 -46h-512zM295 82h420q184 0 324.5 69t222 209t81.5 334q0 196 -81.5 336.5t-221.5 210t-325 70.5h-420v-1229z"/>
            <glyph unicode="E" horiz-adv-x="1349" d="M205 0v1393h1042v-84h-954v-539h805v-82h-805v-604h954v-84h-1042z"/>
            <glyph unicode="F" horiz-adv-x="1280" d="M205 0v1393h1001v-84h-913v-619h803v-82h-803v-608h-88z"/>
            <glyph unicode="G" horiz-adv-x="1538"
                   d="M102 694q0 166 58 303t158.5 227t235.5 139.5t290 49.5q161 0 286 -50.5t236 -148.5l-49 -69q-101 90 -214 136t-257 46q-135 0 -253.5 -43.5t-207 -123t-139.5 -200t-51 -266.5q0 -192 88 -336.5t235.5 -218t329.5 -73.5q133 0 263.5 38.5t217.5 100.5v422h-545v82h635 v-553q-99 -76 -259 -126t-316 -50q-155 0 -290 49t-235.5 139t-158.5 226t-58 300z"/>
            <glyph unicode="H" horiz-adv-x="1648" d="M205 0v1393h90v-652h1057v652h90v-1393h-90v657h-1057v-657h-90z"/>
            <glyph unicode="I" horiz-adv-x="499" d="M205 0v1393h90v-1393h-90z"/>
            <glyph unicode="J" horiz-adv-x="1282"
                   d="M43 504l88 10q16 -216 123.5 -334.5t312.5 -118.5q210 0 324.5 126t114.5 339v867h90v-871q0 -244 -141 -395.5t-388 -151.5q-243 0 -375.5 141.5t-148.5 387.5z"/>
            <glyph unicode="K" horiz-adv-x="1296"
                   d="M205 0v1393h90v-668h207l639 668h98v-15l-659 -696l720 -670v-12h-116l-684 641h-205v-641h-90z"/>
            <glyph unicode="L" horiz-adv-x="1140" d="M205 0v1393h90v-1311h827v-82h-917z"/>
            <glyph unicode="M" horiz-adv-x="1867"
                   d="M205 0v1393h84l645 -785l645 785h84v-1393h-90v1247l-625 -760h-26l-627 760v-1247h-90z"/>
            <glyph unicode="N" horiz-adv-x="1640"
                   d="M205 0v1393h84l1057 -1254v1254h90v-1393h-82l-1059 1247v-1247h-90z"/>
            <glyph unicode="O"
                   d="M100 694q0 152 54.5 285.5t149.5 228.5t227.5 150t283.5 55q152 0 285.5 -55t228.5 -150t150 -228.5t55 -285.5q0 -201 -93 -364.5t-258 -256.5t-368 -93q-201 0 -365 93t-257 256.5t-93 364.5zM190 694q0 -178 81 -321.5t224.5 -225t321.5 -81.5q134 0 251 48t200 131 t130.5 199.5t47.5 249.5q0 180 -81.5 324.5t-225 225.5t-322.5 81q-270 0 -448.5 -179t-178.5 -452z"/>
            <glyph unicode="P" horiz-adv-x="1333"
                   d="M205 0v1393h575q99 0 184.5 -29.5t152 -87t105 -151.5t38.5 -214q0 -108 -38.5 -198.5t-104.5 -150t-153 -92t-184 -32.5h-485v-438h-90zM295 520h475q169 0 283 105.5t114 285.5q0 99 -31.5 176.5t-86 126t-125.5 73t-154 24.5h-475v-791z"/>
            <glyph unicode="Q"
                   d="M100 694q0 152 54.5 285.5t149.5 228.5t227.5 150t283.5 55q152 0 285.5 -55t228.5 -150t150 -228.5t55 -285.5q0 -270 -165.5 -465t-426.5 -235q23 -17 70 -60t87.5 -75t96.5 -67.5t122.5 -55t139.5 -19.5q137 0 236 35l16 -82q-115 -39 -256 -39q-82 0 -161 24 t-138.5 60.5t-116 80t-95 82t-73.5 67.5t-55 35q-201 0 -365 93t-257 256.5t-93 364.5zM190 694q0 -178 81 -321.5t224 -225t320 -81.5q180 0 324.5 81.5t225.5 225t81 321.5q0 135 -47.5 252.5t-130.5 200.5t-200.5 130.5t-252.5 47.5q-132 0 -248 -47.5t-199 -130.5 t-130.5 -200.5t-47.5 -252.5z"/>
            <glyph unicode="R" horiz-adv-x="1411"
                   d="M205 0v1393h594q98 0 182 -26.5t149 -78.5t102.5 -136.5t37.5 -193.5q0 -86 -25.5 -156.5t-69 -119t-104.5 -82t-129.5 -50t-146.5 -18.5l581 -520v-12h-119l-581 530h-381v-530h-90zM295 608h510q159 0 266 92.5t107 255.5q0 89 -30.5 158t-82.5 111.5t-118 64 t-142 21.5h-510v-703z"/>
            <glyph unicode="S" horiz-adv-x="1222"
                   d="M102 1038q0 76 32 142t94 118t165.5 82.5t235.5 30.5q129 0 257.5 -33.5t209.5 -79.5l-29 -84q-70 45 -197 78t-243 33q-213 0 -322.5 -80.5t-109.5 -200.5q0 -187 264 -249l293 -70q189 -46 283.5 -123.5t94.5 -216.5q0 -184 -154 -294.5t-396 -110.5 q-134 0 -261.5 37.5t-203.5 84.5l24 86q77 -46 197.5 -84t245.5 -38q199 0 326.5 85.5t127.5 229.5q0 101 -76.5 162.5t-240.5 97.5l-285 66q-160 37 -246 120.5t-86 210.5z"/>
            <glyph unicode="T" horiz-adv-x="1243" d="M27 1309v84h1187v-84h-530v-1309h-90v1309h-567z"/>
            <glyph unicode="U" horiz-adv-x="1538"
                   d="M184 557v836h90v-832q0 -231 123 -365.5t369 -134.5q125 0 222 39.5t156.5 108.5t89.5 158.5t30 195.5v830h90v-836q0 -119 -37 -222.5t-108 -184.5t-185 -128t-258 -47t-255.5 43t-182.5 121.5t-107.5 184t-36.5 233.5z"/>
            <glyph unicode="V" horiz-adv-x="1361" d="M43 1393h96l533 -1303l569 1303h96l-612 -1393h-104z"/>
            <glyph unicode="W" horiz-adv-x="2140"
                   d="M43 1393h94l535 -1291l360 805l-201 486h97l526 -1282l565 1282h95l-613 -1393h-94l-336 803l-356 -803h-94z"/>
            <glyph unicode="X" horiz-adv-x="1327"
                   d="M35 0v10l563 686l-563 688v9h102l527 -633l526 633h102v-9l-565 -688l565 -686v-10h-104l-524 633l-525 -633h-104z"/>
            <glyph unicode="Y" horiz-adv-x="1368" d="M45 1384v9h100l539 -709l539 709h100v-9l-594 -782v-602h-90v600z"/>
            <glyph unicode="Z" horiz-adv-x="1153" d="M74 0v74l891 1237h-891v82h1005v-74l-891 -1237h891v-82h-1005z"/>
            <glyph unicode="[" horiz-adv-x="577" d="M160 -385v1839h379v-78h-301v-1681h301v-80h-379z"/>
            <glyph unicode="\" horiz-adv-x="972" d="M72 1384v9h84l747 -1383v-10h-86z"/>
            <glyph unicode="]" horiz-adv-x="575" d="M37 -305h303v1681h-303v78h381v-1839h-381v80z"/>
            <glyph unicode="^" horiz-adv-x="1073" d="M127 846v10l369 537h73l377 -537v-10h-88l-326 473l-317 -473h-88z"/>
            <glyph unicode="_" horiz-adv-x="1105" d="M41 -92h1024v-80h-1024v80z"/>
            <glyph unicode="`" horiz-adv-x="1228" d="M496 1518h98l168 -271h-88z"/>
            <glyph unicode="a" horiz-adv-x="1118"
                   d="M86 307q0 130 71 216.5t187.5 124.5t273.5 38q128 0 242 -31v52q0 148 -79.5 224.5t-233.5 76.5q-184 0 -336 -76l-18 82q71 35 169.5 55.5t190.5 20.5q193 0 295 -101t102 -282v-707h-90v131q-163 -151 -389 -151q-177 0 -281 88t-104 239zM176 313q0 -119 85 -187.5 t231 -68.5q120 0 207.5 43.5t160.5 110.5v373q-98 28 -229 28q-99 0 -179.5 -17t-143.5 -51.5t-97.5 -93.5t-34.5 -137z"/>
            <glyph unicode="b" horiz-adv-x="1288"
                   d="M182 0v1454h90v-524q69 69 168 114.5t211 45.5q240 0 385.5 -154t145.5 -399t-146 -401t-385 -156q-114 0 -211.5 44.5t-167.5 114.5v-139h-90zM272 225q58 -68 155 -116t208 -48q204 0 329.5 132.5t125.5 343.5q0 208 -125.5 339.5t-329.5 131.5q-109 0 -206.5 -49 t-156.5 -117v-617z"/>
            <glyph unicode="c" horiz-adv-x="1159"
                   d="M104 537q0 160 71.5 288t202 201.5t294.5 73.5q236 0 395 -146l-47 -69q-139 129 -346 129q-210 0 -343.5 -135.5t-133.5 -341.5t133.5 -343t343.5 -137q207 0 346 129l47 -69q-159 -146 -395 -146q-123 0 -229 43.5t-180.5 118.5t-116.5 180t-42 224z"/>
            <glyph unicode="d" horiz-adv-x="1288"
                   d="M106 537q0 244 146.5 398.5t384.5 154.5q112 0 211 -45.5t168 -114.5v524h90v-1454h-90v139q-67 -69 -166 -114t-213 -45q-237 0 -384 156t-147 401zM199 537q0 -211 125 -343.5t329 -132.5q112 0 209.5 48t153.5 116v617q-59 68 -156.5 117t-206.5 49 q-204 0 -329 -131.5t-125 -339.5z"/>
            <glyph unicode="e" horiz-adv-x="1239"
                   d="M106 532q0 116 39 219t109.5 180.5t176 123t231.5 45.5q119 0 210.5 -35.5t147.5 -97.5t84.5 -141.5t28.5 -172.5q0 -81 -19 -155h-917q4 -96 34 -175t87 -141t149.5 -96.5t212.5 -34.5q212 0 391 135l43 -69q-184 -146 -434 -146q-118 0 -214 29t-162.5 80.5 t-111.5 122.5t-65.5 153.5t-20.5 175.5zM199 575h837q8 54 8 89q0 72 -22.5 134.5t-67.5 113t-120 79.5t-172 29q-205 0 -331 -129t-132 -316z"/>
            <glyph unicode="f" horiz-adv-x="843"
                   d="M49 924v77h236v117q0 162 78.5 259.5t242.5 97.5q92 0 161 -36.5t110 -84.5l-35 -70q-97 107 -228 107q-239 0 -239 -273v-117h430v-77h-430v-924h-90v924h-236z"/>
            <glyph unicode="g" horiz-adv-x="1284"
                   d="M106 573q0 142 65.5 259.5t187.5 187.5t278 70q113 0 211 -45.5t166 -114.5v141h90v-989q0 -114 -37.5 -207.5t-101.5 -154t-148.5 -93.5t-179.5 -33q-38 0 -74.5 4t-64 9t-59 15.5t-49 16.5t-45.5 20.5t-36.5 19t-33 19.5t-25.5 15l24 82q35 -23 62 -38t75 -36.5 t105.5 -33t120.5 -11.5q159 0 268 104.5t109 289.5v149q-70 -68 -168 -113t-209 -45q-156 0 -278 69.5t-187.5 186t-65.5 256.5zM199 573q0 -183 125.5 -306.5t328.5 -123.5q109 0 204.5 47.5t156.5 114.5v539q-59 68 -155 116t-206 48q-203 0 -328.5 -125.5t-125.5 -309.5z "/>
            <glyph unicode="h" horiz-adv-x="1298"
                   d="M182 0v1454h90v-604q59 114 169.5 177t256.5 63q210 0 322.5 -132t112.5 -342v-616h-91v606q0 178 -92 288t-270 110q-156 0 -265.5 -84t-142.5 -215v-705h-90z"/>
            <glyph unicode="i" horiz-adv-x="454"
                   d="M160 1378q0 70 69 70q66 0 66 -70q0 -71 -66 -71q-69 0 -69 71zM182 0v1071h90v-1071h-90z"/>
            <glyph unicode="j" horiz-adv-x="454"
                   d="M-51 -338q114 60 173.5 143t59.5 220v1046h90v-1046q0 -302 -276 -428zM160 1378q0 70 69 70q66 0 66 -70q0 -71 -66 -71q-69 0 -69 71z"/>
            <glyph unicode="k" horiz-adv-x="1054"
                   d="M182 0v1454h90v-860l611 477h108v-14l-626 -488l661 -555v-14h-117l-637 543v-543h-90z"/>
            <glyph unicode="l" horiz-adv-x="571"
                   d="M186 207v1247h90v-1233q0 -83 38 -121.5t102 -38.5q68 0 139 48l20 -74q-76 -55 -182 -55q-96 0 -151.5 55.5t-55.5 171.5z"/>
            <glyph unicode="m" horiz-adv-x="2086"
                   d="M182 0v1071h90v-233q60 117 164 184.5t248 67.5q304 0 391 -279q55 125 164.5 202t265.5 77q106 0 186.5 -36t129.5 -101t73.5 -149.5t24.5 -187.5v-616h-90v606q0 87 -20 157.5t-60.5 125.5t-108 85t-157.5 30q-153 0 -252.5 -89t-132.5 -225v-690h-90v608q0 87 -20 158 t-60.5 125t-107.5 83.5t-156 29.5q-154 0 -255.5 -88.5t-136.5 -223.5v-692h-90z"/>
            <glyph unicode="n" horiz-adv-x="1298"
                   d="M182 0v1071h90v-223q59 115 169.5 178.5t256.5 63.5q210 0 322.5 -132t112.5 -342v-616h-91v606q0 178 -92 288t-270 110q-156 0 -265.5 -84t-142.5 -215v-705h-90z"/>
            <glyph unicode="o" horiz-adv-x="1345"
                   d="M104 532q0 161 71.5 291t201.5 203.5t293 73.5q250 0 409.5 -161t159.5 -407q0 -243 -159.5 -402t-409.5 -159q-163 0 -293 73t-201.5 201t-71.5 287zM193 532q0 -204 134 -339.5t343 -135.5q213 0 347 135t134 340q0 208 -134 345t-347 137q-209 0 -343 -137.5 t-134 -344.5z"/>
            <glyph unicode="p" horiz-adv-x="1286"
                   d="M182 -385v1456h90v-141q70 70 167.5 115t209.5 45q239 0 385 -155.5t146 -402.5q0 -244 -146 -398t-385 -154q-111 0 -209.5 44t-167.5 111v-520h-90zM272 223q58 -67 155 -114.5t206 -47.5q205 0 329.5 131t124.5 340q0 211 -124.5 343.5t-329.5 132.5q-110 0 -206 -48 t-155 -116v-621z"/>
            <glyph unicode="q" horiz-adv-x="1286"
                   d="M109 532q0 246 145.5 402t382.5 156q113 0 211 -45.5t166 -114.5v141h90v-1456h-90v520q-69 -67 -167.5 -111t-209.5 -44q-237 0 -382.5 154t-145.5 398zM199 532q0 -209 124.5 -340t329.5 -131q109 0 204.5 47.5t156.5 114.5v621q-59 68 -155 116t-206 48 q-205 0 -329.5 -132.5t-124.5 -343.5z"/>
            <glyph unicode="r" horiz-adv-x="872"
                   d="M182 0v1071h90v-242q117 261 344 261q127 0 226 -86l-43 -74q-84 74 -193 74q-120 0 -204.5 -82.5t-129.5 -216.5v-705h-90z"/>
            <glyph unicode="s" horiz-adv-x="1019"
                   d="M111 72l22 84q176 -97 371 -97q151 0 240.5 65t89.5 163q0 77 -58.5 121t-183.5 71l-182 43q-159 36 -229 91.5t-70 166.5q0 142 106.5 226t300.5 84q95 0 199.5 -24.5t165.5 -55.5l-25 -82q-68 34 -161.5 58t-182.5 24q-152 0 -232.5 -60.5t-80.5 -165.5 q0 -75 53.5 -113.5t187.5 -68.5l179 -43q155 -35 229 -97.5t74 -170.5q0 -136 -114 -223.5t-306 -87.5q-213 0 -393 92z"/>
            <glyph unicode="t" horiz-adv-x="860"
                   d="M29 993v78h221l6 272h84v-272h461v-78h-463v-692q0 -116 56 -178t161 -62q65 0 140.5 25.5t127.5 63.5l37 -74q-147 -96 -323 -96q-138 0 -213.5 79.5t-75.5 229.5v704h-219z"/>
            <glyph unicode="u" horiz-adv-x="1298"
                   d="M166 455v616h90v-606q0 -116 38 -203.5t121 -140.5t203 -53q156 0 264 84t142 215v704h90v-1071h-90v223q-59 -115 -168.5 -178t-257.5 -63q-141 0 -240 63t-145.5 168t-46.5 242z"/>
            <glyph unicode="v" horiz-adv-x="1167" d="M55 1071h99l430 -987l430 987h98l-473 -1071h-111z"/>
            <glyph unicode="w" horiz-adv-x="1982"
                   d="M61 1071h99l389 -987l389 987h106l388 -987l393 987h98l-434 -1071h-111l-387 975l-389 -975h-110z"/>
            <glyph unicode="x" horiz-adv-x="1103"
                   d="M55 0v10l432 522l-432 531v8h103l393 -477l397 477h101v-8l-435 -531l435 -522v-10h-105l-393 473l-389 -473h-107z"/>
            <glyph unicode="y" horiz-adv-x="1183"
                   d="M14 -330l23 78q103 -72 221 -72q71 0 123 29.5t85 76.5t69 128l38 94l-526 1067h100l469 -971l418 971h94l-505 -1167q-34 -77 -65 -128t-73.5 -95.5t-98.5 -65.5t-128 -21q-133 0 -244 76z"/>
            <glyph unicode="z" horiz-adv-x="1019" d="M86 0v74l733 919h-733v78h848v-74l-733 -919h733v-78h-848z"/>
            <glyph unicode="{" horiz-adv-x="542"
                   d="M90 498v65q193 0 193 156q0 76 -34 174.5t-68 191t-34 154.5q0 42 13 79t40.5 68t76 49.5t112.5 18.5h68v-74h-62q-77 0 -123.5 -43.5t-46.5 -111.5q0 -54 33.5 -146t67.5 -192.5t34 -175.5q0 -80 -33 -122t-114 -59q82 -17 114.5 -59.5t32.5 -128.5q0 -73 -34 -172.5 t-67.5 -191.5t-33.5 -146q0 -69 46.5 -113.5t123.5 -44.5h62v-71h-68q-124 0 -183 62t-59 155q0 62 34 154.5t68 191.5t34 176q0 78 -46 117t-147 39z"/>
            <glyph unicode="|" horiz-adv-x="397" d="M160 -385v1839h78v-1839h-78z"/>
            <glyph unicode="}" horiz-adv-x="542"
                   d="M88 -326h59q77 0 123.5 44.5t46.5 113.5q0 54 -33.5 146t-67.5 191.5t-34 172.5q0 86 33 128.5t115 59.5q-82 17 -115 59t-33 122q0 75 34 175.5t67.5 192.5t33.5 146q0 68 -46.5 111.5t-123.5 43.5h-59v74h66q64 0 112.5 -18.5t75.5 -49.5t40 -68t13 -79 q0 -50 -21 -119.5t-46.5 -129t-46.5 -135.5t-21 -136q0 -156 193 -156v-65q-101 0 -147 -39t-46 -117q0 -77 34 -176t67.5 -191.5t33.5 -154.5q0 -93 -58.5 -155t-182.5 -62h-66v71z"/>
            <glyph unicode="~" horiz-adv-x="1013"
                   d="M145 567q10 76 60 130.5t125 54.5q39 0 79 -19.5t73.5 -47t65.5 -55.5t66.5 -47.5t65.5 -19.5q112 0 139 146l49 -35q-14 -82 -63 -133.5t-123 -51.5q-39 0 -77.5 19.5t-70.5 46.5t-63 54.5t-67.5 47t-71.5 19.5q-48 0 -88.5 -37.5t-48.5 -106.5z"/>
            <glyph unicode="&#xa1;" horiz-adv-x="430"
                   d="M125 1006q0 45 23.5 69.5t66.5 24.5q88 0 88 -94q0 -46 -23 -71.5t-65 -25.5q-43 0 -66.5 25.5t-23.5 71.5zM168 -313l10 987h74l8 -987h-92z"/>
            <glyph unicode="&#xa2;" horiz-adv-x="1167"
                   d="M96 537q0 160 71.5 288t202 201.5t294.5 73.5q54 0 112 -10l60 210l65 -16l-59 -211q126 -38 217 -119l-47 -69q-83 77 -193 106l-256 -925q49 -9 103 -9q207 0 346 129l47 -69q-159 -146 -395 -146q-38 0 -123 13l-72 -258l-66 18l70 256q-172 56 -274.5 201t-102.5 336 zM188 537q0 -161 84 -283.5t226 -169.5l256 924q-44 6 -88 6q-210 0 -344 -135.5t-134 -341.5z"/>
            <glyph unicode="&#xa3;" horiz-adv-x="1239"
                   d="M86 158q0 82 55 135t144 53q31 0 65.5 -9t50.5 -20q-1 27 1 35t-1.5 37t-4 38.5t-5.5 39.5t-7 40.5t-8 41.5t-8.5 42.5t-9.5 44t-10 44.5h-211v68h195q-29 156 -29 268q0 176 100 286.5t289 110.5q74 0 142.5 -22t117.5 -57t78.5 -62t50.5 -53l-43 -74q-60 69 -90 94 q-106 88 -243 88q-152 0 -232 -90t-80 -236q0 -104 29 -253h508v-68h-496q2 -12 10 -51t10.5 -53t8.5 -48.5t8.5 -51.5t6 -46.5t4.5 -49.5t1 -44.5t-2 -46.5q33 -18 106.5 -79.5t141.5 -105t121 -43.5q210 0 207 363h78q3 -208 -65 -326t-208 -118q-53 0 -113 29.5t-104 65 t-97 79.5t-81 61q-10 -51 -25 -90t-40 -73.5t-63 -53t-87 -18.5q-80 0 -123 49t-43 129zM152 158q0 -50 23.5 -81.5t76.5 -31.5q68 0 100.5 55t42.5 150q-52 33 -106 33q-59 0 -98 -34t-39 -91z"/>
            <glyph unicode="&#xa4;" horiz-adv-x="1062"
                   d="M141 283l117 114q-78 91 -78 219q0 131 78 222l-117 116l58 56l116 -119q88 72 213 72q135 0 220 -76l120 123l58 -56l-123 -123q74 -90 74 -215q0 -118 -72 -213l121 -120l-58 -56l-120 121q-87 -74 -220 -74q-126 0 -215 70l-114 -117zM254 616q0 -118 76.5 -195 t197.5 -77q122 0 198.5 77t76.5 195q0 120 -76.5 198.5t-198.5 78.5q-121 0 -197.5 -78.5t-76.5 -198.5z"/>
            <glyph unicode="&#xa5;" horiz-adv-x="1181"
                   d="M76 1384v9h96l418 -713l420 713h96v-9l-447 -739h349v-67h-373v-166h373v-68h-373v-344h-90v344h-371v68h371v166h-371v67h346z"/>
            <glyph unicode="&#xa6;" horiz-adv-x="438" d="M180 326h78v-711h-78v711zM180 768v686h78v-686h-78z"/>
            <glyph unicode="&#xa7;" horiz-adv-x="1271"
                   d="M125 600q0 101 73 183t220 114q-3 1 -31 6.5t-36.5 7.5t-36.5 9t-39.5 12t-35 15.5t-35 21t-28 26t-24 33t-13.5 40t-6 48.5q0 124 130.5 210.5t365.5 86.5q269 0 489 -90l-26 -80q-78 35 -208 63.5t-261 28.5q-189 0 -295.5 -63.5t-106.5 -149.5q0 -121 170 -145 l379 -59q177 -28 277 -111t100 -207q0 -104 -75 -179t-210 -106q66 -14 113.5 -31t88.5 -42.5t62 -63t21 -86.5q0 -136 -144 -214.5t-370 -78.5q-145 0 -273 29.5t-213 65.5l23 79q80 -34 198.5 -62.5t249.5 -29.5q211 -3 326 68q113 52 113 137q0 72 -65 107t-208 61 l-350 63q-163 31 -236 98t-73 185zM211 608q0 -91 56 -141t192 -74l225 -41q47 1 94.5 7.5t99 24t91 43.5t65 69.5t25.5 97.5q0 99 -79.5 162t-234.5 86l-165 26q-61 -1 -122.5 -15.5t-118.5 -44t-92.5 -81.5t-35.5 -119z"/>
            <glyph unicode="&#xa8;" horiz-adv-x="1228"
                   d="M309 1376q0 70 68 70q63 0 63 -70q0 -69 -63 -69q-68 0 -68 69zM817 1376q0 70 68 70q63 0 63 -70q0 -69 -63 -69q-68 0 -68 69z"/>
            <glyph unicode="&#xa9;" horiz-adv-x="1654"
                   d="M111 694q0 203 93 368t256.5 258t364.5 93q152 0 285.5 -55t228.5 -150t150 -228.5t55 -285.5q0 -201 -93 -364.5t-258 -256.5t-368 -93q-201 0 -364.5 93t-256.5 256.5t-93 364.5zM174 694q0 -183 85 -332t234 -234t332 -85q185 0 335 85t234.5 234t84.5 332 q0 139 -50 260.5t-136 208.5t-208 137t-260 50q-183 0 -332 -85t-234 -235.5t-85 -335.5zM473 696q0 154 101.5 255.5t256.5 101.5q169 0 275 -115l-39 -53q-40 46 -100.5 71t-130.5 25q-126 0 -206.5 -80.5t-80.5 -204.5q0 -125 80.5 -204.5t206.5 -79.5q70 0 130.5 25 t100.5 69l39 -53q-109 -115 -275 -115q-155 0 -256.5 101.5t-101.5 256.5z"/>
            <glyph unicode="&#xaa;" horiz-adv-x="958"
                   d="M156 934q0 114 90 172.5t241 58.5q53 0 123 -16v39q0 83 -40 119t-130 36q-118 0 -207 -47l-14 68q39 19 103 31t118 14q6 0 19.5 -1t19.5 -1q108 -12 155.5 -61t47.5 -154v-324q0 -41 13.5 -61.5t47.5 -20.5q31 0 74 29l8 -59q-56 -33 -104 -33q-91 0 -107 90 q-94 -90 -223 -90q-106 0 -170.5 56.5t-64.5 154.5zM178 469v63h613v-63h-613zM225 938q0 -69 49.5 -109.5t131.5 -40.5q116 0 204 84v222q-47 14 -121 14q-123 0 -193.5 -41t-70.5 -129z"/>
            <glyph unicode="&#xab;" horiz-adv-x="1011"
                   d="M109 608v25l323 401h8l33 -37l-283 -376l285 -377l-35 -37h-8zM512 608v25l324 401h8l33 -37l-283 -376l285 -377l-35 -37h-8z"/>
            <glyph unicode="&#xac;" horiz-adv-x="1241" d="M162 702v78h921v-497h-77v419h-844z"/>
            <glyph unicode="&#xad;" horiz-adv-x="1042" d="M152 580v79h739v-79h-739z"/>
            <glyph unicode="&#xae;" horiz-adv-x="1654"
                   d="M111 694q0 203 93 368t256.5 258t364.5 93q152 0 285.5 -55t228.5 -150t150 -228.5t55 -285.5q0 -201 -93 -364.5t-258 -256.5t-368 -93q-201 0 -364.5 93t-256.5 256.5t-93 364.5zM174 694q0 -183 85 -332t234 -234t332 -85q185 0 335 85t234.5 234t84.5 332 q0 139 -50 260.5t-136 208.5t-208 137t-260 50q-183 0 -332 -85t-234 -235.5t-85 -335.5zM565 346v696h307q101 0 169.5 -56.5t68.5 -164.5q0 -50 -17 -89t-41.5 -60t-57.5 -36t-57.5 -19.5t-49 -7.5t-25.5 -3l281 -248v-12h-92l-283 256h-127v-256h-76zM641 664h229 q71 0 118.5 42t47.5 113q0 78 -47.5 119t-118.5 41h-229v-315z"/>
            <glyph unicode="&#xaf;" horiz-adv-x="1228" d="M387 1319v74h481v-74h-481z"/>
            <glyph unicode="&#xb0;" horiz-adv-x="907"
                   d="M104 1065q0 150 98.5 248t250.5 98q153 0 250.5 -98t97.5 -248q0 -149 -97.5 -246.5t-250.5 -97.5q-152 0 -250.5 98t-98.5 246zM178 1065q0 -118 77 -195t198 -77q122 0 199 77t77 195q0 120 -77 198t-199 78q-121 0 -198 -78.5t-77 -197.5z"/>
            <glyph unicode="&#xb1;" horiz-adv-x="1282"
                   d="M180 186v78h920v-78h-920zM180 805v78h422v420h78v-420h420v-78h-420v-346h-78v346h-422z"/>
            <glyph unicode="&#xb2;" horiz-adv-x="630"
                   d="M74 1399q2 99 64 159t173 60t168.5 -57t57.5 -148q0 -124 -140 -229l-213 -160h373v-57h-473v53l270 205q61 45 89 88t28 96q0 65 -41.5 107.5t-120.5 42.5q-83 0 -128.5 -46.5t-47.5 -121.5z"/>
            <glyph unicode="&#xb3;" horiz-adv-x="626"
                   d="M76 1001l18 56q91 -41 199 -41q84 0 140 36t56 97q0 56 -43 88.5t-124 32.5h-170v55h170q67 0 106 35.5t39 83.5q0 115 -174 115q-103 0 -197 -46l-16 58q102 47 213 47q109 0 173 -44.5t64 -125.5q0 -56 -31.5 -97.5t-88.5 -50.5q69 -12 106 -52.5t37 -106.5 q0 -84 -71 -134.5t-189 -50.5q-21 0 -42 1.5t-40 5.5t-34.5 7t-33 8.5t-26.5 8.5t-23.5 8t-17.5 6z"/>
            <glyph unicode="&#xb4;" horiz-adv-x="1228" d="M496 1247l168 271h98l-178 -271h-88z"/>
            <glyph unicode="&#xb5;" horiz-adv-x="1220"
                   d="M156 -385v1456h90v-606q0 -185 85 -292t257 -107q148 0 250.5 81.5t136.5 208.5v715h90v-1071h-90v215q-57 -109 -163 -172t-245 -63q-118 0 -199 51t-122 143v-559h-90z"/>
            <glyph unicode="&#xb6;" horiz-adv-x="970"
                   d="M74 852q0 102 63 159.5t162 59.5h197v-1456h-80v1020h-117q-98 0 -161.5 58t-63.5 159zM721 -385v1456h78v-1456h-78z"/>
            <glyph unicode="&#xb7;" horiz-adv-x="477"
                   d="M150 612q0 46 22.5 70.5t63.5 24.5q44 0 68 -24.5t24 -70.5q0 -96 -92 -96q-86 0 -86 96z"/>
            <glyph unicode="&#xb8;" horiz-adv-x="1228"
                   d="M442 -379l17 55q63 -24 129 -24q133 0 133 88q0 74 -119 74q-53 0 -123 -17l-4 6l51 205l64 -6l-37 -141q36 8 68 8q78 0 121.5 -35t43.5 -94q0 -69 -55.5 -107.5t-140.5 -38.5q-74 0 -148 27z"/>
            <glyph unicode="&#xb9;" horiz-adv-x="452" d="M31 1477l270 129h55v-639h-63v569l-236 -111z"/>
            <glyph unicode="&#xba;" horiz-adv-x="1001"
                   d="M152 1065q0 150 98 248t250 98q153 0 250.5 -98t97.5 -248q0 -149 -97.5 -246.5t-250.5 -97.5q-152 0 -250 98t-98 246zM195 469v63h612v-63h-612zM221 1065q0 -121 78.5 -199t200.5 -78q124 0 202 78t78 199t-78.5 201t-201.5 80q-122 0 -200.5 -80t-78.5 -201z"/>
            <glyph unicode="&#xbb;" horiz-adv-x="1011"
                   d="M133 995l35 39h8l324 -401v-25l-324 -401h-8l-33 37l283 377zM537 995l34 39h9l323 -401v-25l-323 -401h-9l-32 37l282 377z"/>
            <glyph unicode="&#xbc;" horiz-adv-x="1495"
                   d="M68 1264l270 129h55v-639h-63v569l-236 -111zM254 0v10l754 1383h65v-9l-754 -1384h-65zM827 141v52l371 446h82v-444h143v-54h-143v-141h-61v141h-392zM899 195h320v383z"/>
            <glyph unicode="&#xbd;" horiz-adv-x="1427"
                   d="M68 1264l270 129h55v-639h-63v569l-236 -111zM252 0v10l754 1383h65v-9l-754 -1384h-65zM854 432q3 99 65.5 159t172.5 60q111 0 168 -57.5t57 -149.5q0 -127 -137 -227l-215 -160h374v-57h-473v53l271 203q60 45 88 89t28 97q0 65 -41.5 106.5t-119.5 41.5 q-85 0 -130 -46.5t-47 -121.5z"/>
            <glyph unicode="&#xbe;" horiz-adv-x="1632"
                   d="M104 797l19 55q91 -41 199 -41q84 0 140 36t56 97q0 56 -43.5 88.5t-124.5 32.5h-170v55h170q67 0 106.5 36t39.5 83q0 115 -174 115q-105 0 -197 -45l-16 57q102 47 213 47q109 0 173 -44.5t64 -125.5q0 -55 -31.5 -96.5t-89.5 -50.5q69 -12 106.5 -53t37.5 -107 q0 -84 -71 -134t-189 -50q-21 0 -42 1.5t-40.5 5.5t-34.5 7t-33 8.5t-27 8t-24 8t-17 6.5zM391 0v10l754 1383h65v-9l-753 -1384h-66zM965 141v52l370 446h82v-444h144v-54h-144v-141h-61v141h-391zM1036 195h320v383z"/>
            <glyph unicode="&#xbf;" horiz-adv-x="915"
                   d="M92 12q0 61 14.5 112t41.5 90t54 68t63 62q11 9 16 14l141 131q40 35 51.5 57.5t11.5 65.5q0 24 -10 62h82q10 -33 10 -68q0 -53 -19 -88t-69 -80l-139 -133q-39 -37 -59 -59t-47.5 -59.5t-39.5 -80t-12 -92.5q0 -122 83.5 -195t209.5 -73q119 0 198 49.5t122 128.5 l45 -65q-48 -84 -140 -139.5t-233 -55.5q-164 0 -269.5 97t-105.5 251zM424 1006q0 45 23.5 69.5t66.5 24.5q88 0 88 -94q0 -46 -23 -71.5t-65 -25.5q-43 0 -66.5 25.5t-23.5 71.5z"/>
            <glyph unicode="&#xc0;" horiz-adv-x="1357"
                   d="M25 0l612 1393h100l578 -1393h-92l-150 356h-799l-157 -356h-92zM303 432h744l-361 866zM471 1839h98l168 -270h-88z"/>
            <glyph unicode="&#xc1;" horiz-adv-x="1357"
                   d="M25 0l612 1393h100l578 -1393h-92l-150 356h-799l-157 -356h-92zM303 432h744l-361 866zM616 1569l168 270h99l-178 -270h-89z"/>
            <glyph unicode="&#xc2;" horiz-adv-x="1357"
                   d="M25 0l612 1393h100l578 -1393h-92l-150 356h-799l-157 -356h-92zM303 432h744l-361 866zM412 1569l227 270h96l228 -270h-86l-191 215l-186 -215h-88z"/>
            <glyph unicode="&#xc3;" horiz-adv-x="1357"
                   d="M25 0l612 1393h100l578 -1393h-92l-150 356h-799l-157 -356h-92zM303 432h744l-361 866zM356 1667q29 53 78 92t109 39q35 0 77.5 -22.5t75 -50t70 -50t63.5 -22.5q90 0 144 106l41 -45q-30 -56 -78.5 -94.5t-106.5 -38.5q-34 0 -76.5 22.5t-75 50t-70.5 50t-64 22.5 q-89 0 -146 -104z"/>
            <glyph unicode="&#xc4;" horiz-adv-x="1357"
                   d="M25 0l612 1393h100l578 -1393h-92l-150 356h-799l-157 -356h-92zM303 432h744l-361 866zM367 1698q0 69 67 69q64 0 64 -69q0 -35 -17.5 -52.5t-46.5 -17.5q-31 0 -49 17.5t-18 52.5zM874 1698q0 69 68 69q64 0 64 -69q0 -35 -17.5 -52.5t-46.5 -17.5q-68 0 -68 70z"/>
            <glyph unicode="&#xc5;" horiz-adv-x="1357"
                   d="M25 0l600 1362q-62 15 -101 65t-39 117q0 83 59 142t142 59t142 -59t59 -142q0 -65 -39 -115t-98 -65l565 -1364h-92l-150 356h-799l-157 -356h-92zM303 432h744l-361 866zM541 1544q0 -60 42.5 -102.5t102.5 -42.5t101.5 42.5t41.5 102.5q0 59 -41.5 101.5t-101.5 42.5 t-102.5 -42.5t-42.5 -101.5z"/>
            <glyph unicode="&#xc6;" horiz-adv-x="2068"
                   d="M-23 0l912 1393h1077v-84h-956v-541h807v-78h-807v-608h956v-82h-1042v356h-611l-235 -356h-101zM358 432h566v862z"/>
            <glyph unicode="&#xc7;" horiz-adv-x="1449"
                   d="M100 696q0 151 55 284t150.5 228t229 150t284.5 55q168 0 308 -60t239 -173l-47 -66q-91 100 -219 156.5t-281 56.5q-177 0 -320.5 -82t-224.5 -226.5t-81 -322.5t81 -322t224.5 -226t320.5 -82q153 0 281 56.5t219 156.5l47 -66q-99 -113 -239 -173t-308 -60q-3 0 -9 1 t-9 1l-31 -121q36 8 68 8q78 0 122 -35t44 -94q0 -69 -55.5 -107.5t-141.5 -38.5q-75 0 -148 27l17 55q63 -24 129 -24q133 0 133 88q0 74 -119 74q-53 0 -123 -17l-4 6l45 181q-137 14 -255 74t-202 153t-132 218.5t-48 266.5z"/>
            <glyph unicode="&#xc8;" horiz-adv-x="1349"
                   d="M205 0v1393h1042v-84h-954v-539h805v-82h-805v-604h954v-84h-1042zM510 1839h98l168 -270h-88z"/>
            <glyph unicode="&#xc9;" horiz-adv-x="1349"
                   d="M205 0v1393h1042v-84h-954v-539h805v-82h-805v-604h954v-84h-1042zM664 1569l167 270h99l-178 -270h-88z"/>
            <glyph unicode="&#xca;" horiz-adv-x="1349"
                   d="M205 0v1393h1042v-84h-954v-539h805v-82h-805v-604h954v-84h-1042zM451 1569l227 270h96l227 -270h-86l-190 215l-186 -215h-88z"/>
            <glyph unicode="&#xcb;" horiz-adv-x="1349"
                   d="M205 0v1393h1042v-84h-954v-539h805v-82h-805v-604h954v-84h-1042zM406 1698q0 69 67 69q64 0 64 -69q0 -35 -17.5 -52.5t-46.5 -17.5q-31 0 -49 17.5t-18 52.5zM913 1698q0 69 68 69q63 0 63 -69q0 -70 -63 -70q-68 0 -68 70z"/>
            <glyph unicode="&#xcc;" horiz-adv-x="499" d="M47 1839h98l168 -270h-88zM205 0v1393h90v-1393h-90z"/>
            <glyph unicode="&#xcd;" horiz-adv-x="499" d="M199 1569l168 270h98l-178 -270h-88zM205 0v1393h90v-1393h-90z"/>
            <glyph unicode="&#xce;" horiz-adv-x="499"
                   d="M-27 1569l228 270h96l227 -270h-86l-190 215l-187 -215h-88zM205 0v1393h90v-1393h-90z"/>
            <glyph unicode="&#xcf;" horiz-adv-x="499"
                   d="M-72 1698q0 69 68 69q63 0 63 -69q0 -70 -63 -70q-31 0 -49.5 17.5t-18.5 52.5zM205 0v1393h90v-1393h-90zM436 1698q0 69 68 69q63 0 63 -69q0 -70 -63 -70q-68 0 -68 70z"/>
            <glyph unicode="&#xd0;" horiz-adv-x="1542"
                   d="M72 670v61h133v662h512q155 -1 286 -47t227.5 -132.5t151 -220t54.5 -299.5q0 -165 -54.5 -297.5t-151 -218.5t-227.5 -132t-286 -46h-512v670h-133zM295 82h420q137 0 252.5 40.5t200 116.5t131.5 192.5t47 262.5q0 196 -82.5 336.5t-223 210t-325.5 70.5h-420v-580h389 v-61h-389v-588z"/>
            <glyph unicode="&#xd1;" horiz-adv-x="1640"
                   d="M205 0v1393h84l1057 -1254v1254h90v-1393h-82l-1059 1247v-1247h-90zM508 1667q29 54 77.5 92.5t108.5 38.5q35 0 77.5 -22.5t75 -50t70.5 -50t64 -22.5q89 0 143 106l41 -45q-30 -56 -78 -94.5t-106 -38.5q-34 0 -76.5 22.5t-75.5 50t-71 50t-64 22.5q-88 0 -145 -104z "/>
            <glyph unicode="&#xd2;"
                   d="M100 694q0 152 54.5 285.5t149.5 228.5t227.5 150t283.5 55q152 0 285.5 -55t228.5 -150t150 -228.5t55 -285.5q0 -201 -93 -364.5t-258 -256.5t-368 -93q-201 0 -365 93t-257 256.5t-93 364.5zM190 694q0 -178 81 -321.5t224.5 -225t321.5 -81.5q134 0 251 48t200 131 t130.5 199.5t47.5 249.5q0 180 -81.5 324.5t-225 225.5t-322.5 81q-270 0 -448.5 -179t-178.5 -452zM598 1839h98l168 -270h-88z"/>
            <glyph unicode="&#xd3;"
                   d="M100 694q0 152 54.5 285.5t149.5 228.5t227.5 150t283.5 55q152 0 285.5 -55t228.5 -150t150 -228.5t55 -285.5q0 -201 -93 -364.5t-258 -256.5t-368 -93q-201 0 -365 93t-257 256.5t-93 364.5zM190 694q0 -178 81 -321.5t224.5 -225t321.5 -81.5q134 0 251 48t200 131 t130.5 199.5t47.5 249.5q0 180 -81.5 324.5t-225 225.5t-322.5 81q-270 0 -448.5 -179t-178.5 -452zM768 1569l168 270h98l-178 -270h-88z"/>
            <glyph unicode="&#xd4;"
                   d="M100 694q0 152 54.5 285.5t149.5 228.5t227.5 150t283.5 55q152 0 285.5 -55t228.5 -150t150 -228.5t55 -285.5q0 -201 -93 -364.5t-258 -256.5t-368 -93q-201 0 -365 93t-257 256.5t-93 364.5zM190 694q0 -178 81 -321.5t224.5 -225t321.5 -81.5q134 0 251 48t200 131 t130.5 199.5t47.5 249.5q0 180 -81.5 324.5t-225 225.5t-322.5 81q-270 0 -448.5 -179t-178.5 -452zM539 1569l227 270h96l228 -270h-86l-191 215l-186 -215h-88z"/>
            <glyph unicode="&#xd5;"
                   d="M100 694q0 152 54.5 285.5t149.5 228.5t227.5 150t283.5 55q152 0 285.5 -55t228.5 -150t150 -228.5t55 -285.5q0 -201 -93 -364.5t-258 -256.5t-368 -93q-201 0 -365 93t-257 256.5t-93 364.5zM190 694q0 -178 81 -321.5t224.5 -225t321.5 -81.5q134 0 251 48t200 131 t130.5 199.5t47.5 249.5q0 180 -81.5 324.5t-225 225.5t-322.5 81q-270 0 -448.5 -179t-178.5 -452zM485 1667q29 53 78 92t109 39q35 0 77.5 -22.5t75 -50t70 -50t63.5 -22.5q90 0 144 106l41 -45q-30 -56 -78.5 -94.5t-106.5 -38.5q-34 0 -76.5 22.5t-75 50t-70.5 50 t-64 22.5q-89 0 -146 -104z"/>
            <glyph unicode="&#xd6;"
                   d="M100 694q0 152 54.5 285.5t149.5 228.5t227.5 150t283.5 55q152 0 285.5 -55t228.5 -150t150 -228.5t55 -285.5q0 -201 -93 -364.5t-258 -256.5t-368 -93q-201 0 -365 93t-257 256.5t-93 364.5zM190 694q0 -178 81 -321.5t224.5 -225t321.5 -81.5q134 0 251 48t200 131 t130.5 199.5t47.5 249.5q0 180 -81.5 324.5t-225 225.5t-322.5 81q-270 0 -448.5 -179t-178.5 -452zM496 1698q0 69 67 69q64 0 64 -69q0 -35 -17.5 -52.5t-46.5 -17.5q-31 0 -49 17.5t-18 52.5zM1004 1698q0 69 67 69q64 0 64 -69q0 -35 -17.5 -52.5t-46.5 -17.5 q-67 0 -67 70z"/>
            <glyph unicode="&#xd7;" horiz-adv-x="997"
                   d="M147 322l297 296l-297 297l54 56l299 -297l297 297l55 -56l-299 -297l299 -296l-55 -56l-297 297l-299 -297z"/>
            <glyph unicode="&#xd8;"
                   d="M100 694q0 152 54.5 285.5t149.5 228.5t227.5 150t283.5 55q246 0 430 -135l94 115h91v-9l-125 -153q109 -98 169 -237t60 -300q0 -201 -93 -364.5t-258 -256.5t-368 -93q-240 0 -422 131l-90 -111h-92v10l123 150q-110 99 -172 236.5t-62 297.5zM190 694q0 -141 52 -261 t147 -206l801 983q-159 115 -373 115q-270 0 -448.5 -179t-178.5 -452zM449 178q156 -112 368 -112q134 0 251 48t200 131t130.5 199.5t47.5 249.5q0 141 -52 261t-147 206z"/>
            <glyph unicode="&#xd9;" horiz-adv-x="1538"
                   d="M184 557v836h90v-832q0 -231 123 -365.5t369 -134.5q125 0 222 39.5t156.5 108.5t89.5 158.5t30 195.5v830h90v-836q0 -119 -37 -222.5t-108 -184.5t-185 -128t-258 -47t-255.5 43t-182.5 121.5t-107.5 184t-36.5 233.5zM549 1839h98l168 -270h-88z"/>
            <glyph unicode="&#xda;" horiz-adv-x="1538"
                   d="M184 557v836h90v-832q0 -231 123 -365.5t369 -134.5q125 0 222 39.5t156.5 108.5t89.5 158.5t30 195.5v830h90v-836q0 -119 -37 -222.5t-108 -184.5t-185 -128t-258 -47t-255.5 43t-182.5 121.5t-107.5 184t-36.5 233.5zM719 1569l168 270h98l-178 -270h-88z"/>
            <glyph unicode="&#xdb;" horiz-adv-x="1538"
                   d="M184 557v836h90v-832q0 -231 123 -365.5t369 -134.5q125 0 222 39.5t156.5 108.5t89.5 158.5t30 195.5v830h90v-836q0 -119 -37 -222.5t-108 -184.5t-185 -128t-258 -47t-255.5 43t-182.5 121.5t-107.5 184t-36.5 233.5zM492 1569l227 270h96l227 -270h-86l-190 215 l-186 -215h-88z"/>
            <glyph unicode="&#xdc;" horiz-adv-x="1538"
                   d="M184 557v836h90v-832q0 -231 123 -365.5t369 -134.5q125 0 222 39.5t156.5 108.5t89.5 158.5t30 195.5v830h90v-836q0 -119 -37 -222.5t-108 -184.5t-185 -128t-258 -47t-255.5 43t-182.5 121.5t-107.5 184t-36.5 233.5zM449 1698q0 69 67 69q64 0 64 -69 q0 -35 -17.5 -52.5t-46.5 -17.5q-31 0 -49 17.5t-18 52.5zM956 1698q0 69 68 69q63 0 63 -69q0 -70 -63 -70q-68 0 -68 70z"/>
            <glyph unicode="&#xdd;" horiz-adv-x="1368"
                   d="M45 1384v9h100l539 -709l539 709h100v-9l-594 -782v-602h-90v600zM633 1569l168 270h98l-178 -270h-88z"/>
            <glyph unicode="&#xde;" horiz-adv-x="1329"
                   d="M205 0v1393h90v-236h485q101 0 184.5 -23.5t151.5 -74t106 -138.5t38 -208q0 -109 -38.5 -194.5t-105 -138t-152 -79.5t-184.5 -27h-485v-274h-90zM295 356h475q83 0 154 21.5t126 63.5t86 112t31 160q0 99 -31 171t-87 112.5t-125 59.5t-154 19h-475v-719z"/>
            <glyph unicode="&#xdf;" horiz-adv-x="1292"
                   d="M180 0v946q0 242 130 385.5t343 143.5q186 0 307 -110t121 -271q0 -48 -15.5 -94t-39 -79t-51 -64.5t-51 -53t-39 -41t-15.5 -31.5q0 -11 24 -30.5t60.5 -43t78.5 -59t78.5 -74.5t60.5 -94.5t24 -114.5q0 -158 -110 -246.5t-283 -88.5q-186 0 -305 69l18 78 q111 -66 270 -66q136 0 226 70t90 188q0 63 -34 120t-82 96t-96 72t-82 62.5t-34 53.5t22 53t54 59.5t63.5 66t53.5 85t22 103.5q0 134 -99.5 218.5t-242.5 84.5q-174 0 -275.5 -120t-101.5 -323v-950h-90z"/>
            <glyph unicode="&#xe0;" horiz-adv-x="1118"
                   d="M86 307q0 130 71 216.5t187.5 124.5t273.5 38q128 0 242 -31v52q0 148 -79.5 224.5t-233.5 76.5q-184 0 -336 -76l-18 82q71 35 169.5 55.5t190.5 20.5q193 0 295 -101t102 -282v-707h-90v131q-163 -151 -389 -151q-177 0 -281 88t-104 239zM176 313q0 -119 85 -187.5 t231 -68.5q120 0 207.5 43.5t160.5 110.5v373q-98 28 -229 28q-99 0 -179.5 -17t-143.5 -51.5t-97.5 -93.5t-34.5 -137zM369 1518h98l168 -271h-88z"/>
            <glyph unicode="&#xe1;" horiz-adv-x="1118"
                   d="M86 307q0 130 71 216.5t187.5 124.5t273.5 38q128 0 242 -31v52q0 148 -79.5 224.5t-233.5 76.5q-184 0 -336 -76l-18 82q71 35 169.5 55.5t190.5 20.5q193 0 295 -101t102 -282v-707h-90v131q-163 -151 -389 -151q-177 0 -281 88t-104 239zM176 313q0 -119 85 -187.5 t231 -68.5q120 0 207.5 43.5t160.5 110.5v373q-98 28 -229 28q-99 0 -179.5 -17t-143.5 -51.5t-97.5 -93.5t-34.5 -137zM520 1247l168 271h98l-178 -271h-88z"/>
            <glyph unicode="&#xe2;" horiz-adv-x="1118"
                   d="M86 307q0 130 71 216.5t187.5 124.5t273.5 38q128 0 242 -31v52q0 148 -79.5 224.5t-233.5 76.5q-184 0 -336 -76l-18 82q71 35 169.5 55.5t190.5 20.5q193 0 295 -101t102 -282v-707h-90v131q-163 -151 -389 -151q-177 0 -281 88t-104 239zM176 313q0 -119 85 -187.5 t231 -68.5q120 0 207.5 43.5t160.5 110.5v373q-98 28 -229 28q-99 0 -179.5 -17t-143.5 -51.5t-97.5 -93.5t-34.5 -137zM293 1247l227 271h96l228 -271h-86l-191 215l-186 -215h-88z"/>
            <glyph unicode="&#xe3;" horiz-adv-x="1118"
                   d="M86 307q0 130 71 216.5t187.5 124.5t273.5 38q128 0 242 -31v52q0 148 -79.5 224.5t-233.5 76.5q-184 0 -336 -76l-18 82q71 35 169.5 55.5t190.5 20.5q193 0 295 -101t102 -282v-707h-90v131q-163 -151 -389 -151q-177 0 -281 88t-104 239zM176 313q0 -119 85 -187.5 t231 -68.5q120 0 207.5 43.5t160.5 110.5v373q-98 28 -229 28q-99 0 -179.5 -17t-143.5 -51.5t-97.5 -93.5t-34.5 -137zM248 1346q29 54 77.5 92.5t108.5 38.5q35 0 77.5 -23t75 -50t70.5 -50t64 -23q89 0 143 107l41 -45q-30 -56 -78 -94.5t-106 -38.5q-34 0 -76.5 22.5 t-75.5 50t-71 50t-64 22.5q-88 0 -145 -105z"/>
            <glyph unicode="&#xe4;" horiz-adv-x="1118"
                   d="M86 307q0 130 71 216.5t187.5 124.5t273.5 38q128 0 242 -31v52q0 148 -79.5 224.5t-233.5 76.5q-184 0 -336 -76l-18 82q71 35 169.5 55.5t190.5 20.5q193 0 295 -101t102 -282v-707h-90v131q-163 -151 -389 -151q-177 0 -281 88t-104 239zM176 313q0 -119 85 -187.5 t231 -68.5q120 0 207.5 43.5t160.5 110.5v373q-98 28 -229 28q-99 0 -179.5 -17t-143.5 -51.5t-97.5 -93.5t-34.5 -137zM246 1376q0 70 67 70q64 0 64 -70q0 -69 -64 -69q-67 0 -67 69zM754 1376q0 70 67 70q64 0 64 -70q0 -69 -64 -69q-67 0 -67 69z"/>
            <glyph unicode="&#xe5;" horiz-adv-x="1118"
                   d="M86 307q0 130 71 216.5t187.5 124.5t273.5 38q128 0 242 -31v52q0 148 -79.5 224.5t-233.5 76.5q-184 0 -336 -76l-18 82q71 35 169.5 55.5t190.5 20.5q193 0 295 -101t102 -282v-707h-90v131q-163 -151 -389 -151q-177 0 -281 88t-104 239zM176 313q0 -119 85 -187.5 t231 -68.5q120 0 207.5 43.5t160.5 110.5v373q-98 28 -229 28q-99 0 -179.5 -17t-143.5 -51.5t-97.5 -93.5t-34.5 -137zM369 1372q0 83 58.5 142t141.5 59t142 -59t59 -142t-59 -142t-142 -59t-141.5 59t-58.5 142zM424 1372q0 -60 42.5 -102.5t102.5 -42.5t102 42.5 t42 102.5t-42 102t-102 42t-102.5 -42t-42.5 -102z"/>
            <glyph unicode="&#xe6;" horiz-adv-x="1888"
                   d="M84 307q0 128 72 214.5t191 124.5t278 38q149 0 233 -20q0 96 -12 156.5t-44.5 105t-91 63.5t-151.5 19q-199 0 -348 -76l-21 82q150 73 377 73q83 0 144.5 -15.5t99 -39t62.5 -63t36 -77.5t19 -91q19 51 51 100t81 95.5t121 75t156 28.5q109 0 195 -36t139.5 -98 t81 -141.5t27.5 -171.5q0 -88 -17 -151h-815q3 -80 15.5 -144.5t41 -123.5t73 -98.5t114 -63t160.5 -23.5q112 0 197.5 35.5t168.5 99.5l43 -67q-184 -146 -415 -146q-162 0 -273.5 70t-154.5 195q-36 -47 -71 -84t-91 -80t-128 -67.5t-153 -24.5q-179 0 -285 88.5 t-106 238.5zM174 313q0 -120 85.5 -188t229.5 -68q122 0 217.5 68.5t151.5 159.5v309q-103 22 -227 22q-96 0 -175.5 -16t-144.5 -50.5t-101 -94.5t-36 -142zM954 573h740q6 81 6 86q0 74 -22.5 139.5t-66 117t-113 81t-157.5 29.5q-97 0 -173.5 -41t-121.5 -108t-68 -144.5 t-24 -159.5z"/>
            <glyph unicode="&#xe7;" horiz-adv-x="1159"
                   d="M104 537q0 160 71.5 288t202 201.5t294.5 73.5q236 0 395 -146l-47 -69q-139 129 -346 129q-210 0 -343.5 -135.5t-133.5 -341.5t133.5 -343t343.5 -137q207 0 346 129l47 -69q-159 -146 -395 -146h-25l-29 -110q36 8 68 8q78 0 122 -35t44 -94q0 -69 -55.5 -107.5 t-141.5 -38.5q-73 0 -147 27l16 55q63 -24 129 -24q133 0 133 88q0 74 -118 74q-53 0 -123 -17l-4 6l43 174q-215 29 -347.5 184.5t-132.5 375.5z"/>
            <glyph unicode="&#xe8;" horiz-adv-x="1239"
                   d="M106 532q0 116 39 219t109.5 180.5t176 123t231.5 45.5q119 0 210.5 -35.5t147.5 -97.5t84.5 -141.5t28.5 -172.5q0 -81 -19 -155h-917q4 -96 34 -175t87 -141t149.5 -96.5t212.5 -34.5q212 0 391 135l43 -69q-184 -146 -434 -146q-118 0 -214 29t-162.5 80.5 t-111.5 122.5t-65.5 153.5t-20.5 175.5zM199 575h837q8 54 8 89q0 72 -22.5 134.5t-67.5 113t-120 79.5t-172 29q-205 0 -331 -129t-132 -316zM475 1518h98l168 -271h-88z"/>
            <glyph unicode="&#xe9;" horiz-adv-x="1239"
                   d="M106 532q0 116 39 219t109.5 180.5t176 123t231.5 45.5q119 0 210.5 -35.5t147.5 -97.5t84.5 -141.5t28.5 -172.5q0 -81 -19 -155h-917q4 -96 34 -175t87 -141t149.5 -96.5t212.5 -34.5q212 0 391 135l43 -69q-184 -146 -434 -146q-118 0 -214 29t-162.5 80.5 t-111.5 122.5t-65.5 153.5t-20.5 175.5zM199 575h837q8 54 8 89q0 72 -22.5 134.5t-67.5 113t-120 79.5t-172 29q-205 0 -331 -129t-132 -316zM604 1247l168 271h98l-178 -271h-88z"/>
            <glyph unicode="&#xea;" horiz-adv-x="1239"
                   d="M106 532q0 116 39 219t109.5 180.5t176 123t231.5 45.5q119 0 210.5 -35.5t147.5 -97.5t84.5 -141.5t28.5 -172.5q0 -81 -19 -155h-917q4 -96 34 -175t87 -141t149.5 -96.5t212.5 -34.5q212 0 391 135l43 -69q-184 -146 -434 -146q-118 0 -214 29t-162.5 80.5 t-111.5 122.5t-65.5 153.5t-20.5 175.5zM199 575h837q8 54 8 89q0 72 -22.5 134.5t-67.5 113t-120 79.5t-172 29q-205 0 -331 -129t-132 -316zM397 1247l228 271h96l227 -271h-86l-190 215l-187 -215h-88z"/>
            <glyph unicode="&#xeb;" horiz-adv-x="1239"
                   d="M106 532q0 116 39 219t109.5 180.5t176 123t231.5 45.5q119 0 210.5 -35.5t147.5 -97.5t84.5 -141.5t28.5 -172.5q0 -81 -19 -155h-917q4 -96 34 -175t87 -141t149.5 -96.5t212.5 -34.5q212 0 391 135l43 -69q-184 -146 -434 -146q-118 0 -214 29t-162.5 80.5 t-111.5 122.5t-65.5 153.5t-20.5 175.5zM199 575h837q8 54 8 89q0 72 -22.5 134.5t-67.5 113t-120 79.5t-172 29q-205 0 -331 -129t-132 -316zM352 1376q0 70 68 70q63 0 63 -70q0 -69 -63 -69q-68 0 -68 69zM860 1376q0 70 68 70q63 0 63 -70q0 -69 -63 -69q-68 0 -68 69z "/>
            <glyph unicode="&#xec;" horiz-adv-x="454" d="M23 1518h98l168 -271h-88zM182 0v1071h90v-1071h-90z"/>
            <glyph unicode="&#xed;" horiz-adv-x="454" d="M182 0v1071h90v-1071h-90zM182 1247l168 271h99l-179 -271h-88z"/>
            <glyph unicode="&#xee;" horiz-adv-x="454"
                   d="M-49 1247l227 271h96l228 -271h-86l-191 215l-186 -215h-88zM182 0v1071h90v-1071h-90z"/>
            <glyph unicode="&#xef;" horiz-adv-x="454"
                   d="M-92 1376q0 70 67 70q64 0 64 -70q0 -69 -64 -69q-67 0 -67 69zM182 0v1071h90v-1071h-90zM416 1376q0 70 67 70q64 0 64 -70q0 -69 -64 -69q-67 0 -67 69z"/>
            <glyph unicode="&#xf0;" horiz-adv-x="1224"
                   d="M92 465q0 217 121 341t326 124q86 0 163 -27.5t134.5 -74.5t98 -96.5t73.5 -106.5q0 13 1 37t1 36q0 167 -63.5 306.5t-170.5 238.5l-145 -147l-37 34l143 148q-108 85 -231 127l39 70q131 -38 252 -136l139 144l39 -37l-137 -139q119 -111 190.5 -267t71.5 -342 q0 -328 -144.5 -523t-400.5 -195q-200 0 -331.5 136t-131.5 349zM182 465q0 -171 106.5 -285t268.5 -114q180 0 294.5 123.5t145.5 340.5q-24 45 -52.5 86.5t-70.5 85t-88.5 75.5t-107 52.5t-125.5 20.5q-166 0 -268.5 -101t-102.5 -284z"/>
            <glyph unicode="&#xf1;" horiz-adv-x="1298"
                   d="M182 0v1071h90v-223q59 115 169.5 178.5t256.5 63.5q210 0 322.5 -132t112.5 -342v-616h-91v606q0 178 -92 288t-270 110q-156 0 -265.5 -84t-142.5 -215v-705h-90zM338 1346q29 54 77.5 92.5t108.5 38.5q35 0 77.5 -23t75 -50t70.5 -50t64 -23q89 0 143 107l41 -45 q-30 -56 -78 -94.5t-106 -38.5q-34 0 -76.5 22.5t-75.5 50t-71 50t-64 22.5q-88 0 -145 -105z"/>
            <glyph unicode="&#xf2;" horiz-adv-x="1345"
                   d="M104 532q0 161 71.5 291t201.5 203.5t293 73.5q250 0 409.5 -161t159.5 -407q0 -243 -159.5 -402t-409.5 -159q-163 0 -293 73t-201.5 201t-71.5 287zM193 532q0 -204 134 -339.5t343 -135.5q213 0 347 135t134 340q0 208 -134 345t-347 137q-209 0 -343 -137.5 t-134 -344.5zM453 1518h98l168 -271h-88z"/>
            <glyph unicode="&#xf3;" horiz-adv-x="1345"
                   d="M104 532q0 161 71.5 291t201.5 203.5t293 73.5q250 0 409.5 -161t159.5 -407q0 -243 -159.5 -402t-409.5 -159q-163 0 -293 73t-201.5 201t-71.5 287zM193 532q0 -204 134 -339.5t343 -135.5q213 0 347 135t134 340q0 208 -134 345t-347 137q-209 0 -343 -137.5 t-134 -344.5zM623 1247l168 271h98l-178 -271h-88z"/>
            <glyph unicode="&#xf4;" horiz-adv-x="1345"
                   d="M104 532q0 161 71.5 291t201.5 203.5t293 73.5q250 0 409.5 -161t159.5 -407q0 -243 -159.5 -402t-409.5 -159q-163 0 -293 73t-201.5 201t-71.5 287zM193 532q0 -204 134 -339.5t343 -135.5q213 0 347 135t134 340q0 208 -134 345t-347 137q-209 0 -343 -137.5 t-134 -344.5zM393 1247l228 271h96l227 -271h-86l-190 215l-187 -215h-88z"/>
            <glyph unicode="&#xf5;" horiz-adv-x="1345"
                   d="M104 532q0 161 71.5 291t201.5 203.5t293 73.5q250 0 409.5 -161t159.5 -407q0 -243 -159.5 -402t-409.5 -159q-163 0 -293 73t-201.5 201t-71.5 287zM193 532q0 -204 134 -339.5t343 -135.5q213 0 347 135t134 340q0 208 -134 345t-347 137q-209 0 -343 -137.5 t-134 -344.5zM340 1346q29 54 77.5 92.5t108.5 38.5q35 0 77.5 -23t75 -50t70.5 -50t64 -23q89 0 143 107l41 -45q-30 -56 -78 -94.5t-106 -38.5q-34 0 -76.5 22.5t-75.5 50t-71 50t-64 22.5q-88 0 -145 -105z"/>
            <glyph unicode="&#xf6;" horiz-adv-x="1345"
                   d="M104 532q0 161 71.5 291t201.5 203.5t293 73.5q250 0 409.5 -161t159.5 -407q0 -243 -159.5 -402t-409.5 -159q-163 0 -293 73t-201.5 201t-71.5 287zM193 532q0 -204 134 -339.5t343 -135.5q213 0 347 135t134 340q0 208 -134 345t-347 137q-209 0 -343 -137.5 t-134 -344.5zM350 1376q0 70 68 70q63 0 63 -70q0 -69 -63 -69q-68 0 -68 69zM858 1376q0 70 68 70q63 0 63 -70q0 -69 -63 -69q-68 0 -68 69z"/>
            <glyph unicode="&#xf7;" horiz-adv-x="1216"
                   d="M145 580v77h922v-77h-922zM498 272q0 44 23.5 69.5t64.5 25.5q43 0 66.5 -25.5t23.5 -69.5q0 -47 -23.5 -71.5t-66.5 -24.5q-42 0 -65 24.5t-23 71.5zM498 967q0 45 23 69.5t65 24.5q43 0 66.5 -24.5t23.5 -69.5q0 -95 -90 -95q-42 0 -65 24t-23 71z"/>
            <glyph unicode="&#xf8;" horiz-adv-x="1345"
                   d="M104 532q0 161 71.5 291t201.5 203.5t293 73.5q200 0 342 -105l59 76h80v-10l-88 -107q84 -77 130 -185.5t46 -236.5q0 -243 -159.5 -402t-409.5 -159q-189 0 -330 99l-57 -70h-78v10l80 99q-86 78 -133.5 186.5t-47.5 236.5zM193 532q0 -107 39.5 -198.5t109.5 -155.5 l612 750q-119 86 -284 86q-209 0 -343 -137.5t-134 -344.5zM397 137q116 -80 273 -80q213 0 347 135t134 340q0 214 -145 353z"/>
            <glyph unicode="&#xf9;" horiz-adv-x="1298"
                   d="M166 455v616h90v-606q0 -116 38 -203.5t121 -140.5t203 -53q156 0 264 84t142 215v704h90v-1071h-90v223q-59 -115 -168.5 -178t-257.5 -63q-141 0 -240 63t-145.5 168t-46.5 242zM428 1518h98l168 -271h-88z"/>
            <glyph unicode="&#xfa;" horiz-adv-x="1298"
                   d="M166 455v616h90v-606q0 -116 38 -203.5t121 -140.5t203 -53q156 0 264 84t142 215v704h90v-1071h-90v223q-59 -115 -168.5 -178t-257.5 -63q-141 0 -240 63t-145.5 168t-46.5 242zM610 1247l168 271h99l-179 -271h-88z"/>
            <glyph unicode="&#xfb;" horiz-adv-x="1298"
                   d="M166 455v616h90v-606q0 -116 38 -203.5t121 -140.5t203 -53q156 0 264 84t142 215v704h90v-1071h-90v223q-59 -115 -168.5 -178t-257.5 -63q-141 0 -240 63t-145.5 168t-46.5 242zM369 1247l227 271h96l228 -271h-86l-191 215l-186 -215h-88z"/>
            <glyph unicode="&#xfc;" horiz-adv-x="1298"
                   d="M166 455v616h90v-606q0 -116 38 -203.5t121 -140.5t203 -53q156 0 264 84t142 215v704h90v-1071h-90v223q-59 -115 -168.5 -178t-257.5 -63q-141 0 -240 63t-145.5 168t-46.5 242zM322 1376q0 70 67 70q64 0 64 -70q0 -69 -64 -69q-67 0 -67 69zM829 1376q0 70 68 70 q64 0 64 -70q0 -69 -64 -69q-68 0 -68 69z"/>
            <glyph unicode="&#xfd;" horiz-adv-x="1183"
                   d="M14 -330l23 78q103 -72 221 -72q71 0 123 29.5t85 76.5t69 128l38 94l-526 1067h100l469 -971l418 971h94l-505 -1167q-34 -77 -65 -128t-73.5 -95.5t-98.5 -65.5t-128 -21q-133 0 -244 76zM549 1247l168 271h98l-178 -271h-88z"/>
            <glyph unicode="&#xfe;" horiz-adv-x="1286"
                   d="M182 -385v1839h90v-524q70 70 167.5 115t209.5 45q239 0 385 -155.5t146 -402.5q0 -244 -146 -398t-385 -154q-111 0 -209.5 44t-167.5 111v-520h-90zM272 223q58 -67 155 -114.5t206 -47.5q205 0 329.5 131t124.5 340q0 211 -124.5 343.5t-329.5 132.5 q-109 0 -205.5 -48.5t-155.5 -115.5v-621z"/>
            <glyph unicode="&#xff;" horiz-adv-x="1183"
                   d="M14 -330l23 78q103 -72 221 -72q71 0 123 29.5t85 76.5t69 128l38 94l-526 1067h100l469 -971l418 971h94l-505 -1167q-34 -77 -65 -128t-73.5 -95.5t-98.5 -65.5t-128 -21q-133 0 -244 76zM287 1376q0 70 67 70q64 0 64 -70q0 -69 -64 -69q-67 0 -67 69zM795 1376 q0 70 67 70q64 0 64 -70q0 -69 -64 -69q-67 0 -67 69z"/>
            <glyph unicode="&#x152;" horiz-adv-x="2418"
                   d="M100 694q0 152 54.5 285.5t149.5 228.5t227.5 150t283.5 55q258 0 457 -168v148h1042v-84h-954v-541h805v-78h-805v-608h954v-82h-1042v145q-203 -165 -457 -165q-201 0 -365 93t-257 256.5t-93 364.5zM188 694q0 -133 48 -249.5t131.5 -199.5t200.5 -131t251 -48 q132 0 249 48.5t204 133.5v895q-88 86 -204.5 135t-250.5 49q-133 0 -250 -48t-200 -131.5t-131 -201t-48 -252.5z"/>
            <glyph unicode="&#x153;" horiz-adv-x="2299"
                   d="M104 532q0 161 71.5 291t201.5 203.5t293 73.5q198 0 340 -105t192 -278q49 170 186.5 276.5t333.5 106.5q118 0 210 -35.5t147.5 -98t83.5 -142t28 -171.5t-16 -151h-922q3 -96 33 -176.5t88 -143.5t152.5 -98t218.5 -35q210 0 385 135l43 -67q-184 -146 -434 -146 q-224 0 -359 100.5t-180 270.5q-52 -169 -193 -270t-337 -101q-163 0 -293 73t-201.5 201t-71.5 287zM193 532q0 -204 134 -340.5t343 -136.5q213 0 347 136t134 341q0 208 -134 345t-347 137q-209 0 -343 -137.5t-134 -344.5zM1253 573h852q9 61 9 89q0 157 -101.5 259.5 t-290.5 102.5q-138 0 -244 -61t-163 -162.5t-62 -227.5z"/>
            <glyph unicode="&#x178;" horiz-adv-x="1368"
                   d="M45 1384v9h100l539 -709l539 709h100v-9l-594 -782v-602h-90v600zM362 1698q0 69 68 69q64 0 64 -69q0 -35 -17.5 -52.5t-46.5 -17.5q-31 0 -49.5 17.5t-18.5 52.5zM870 1698q0 69 68 69q63 0 63 -69q0 -70 -63 -70q-68 0 -68 70z"/>
            <glyph unicode="&#x2c6;" horiz-adv-x="1228" d="M352 1247l228 271h96l227 -271h-86l-190 215l-187 -215h-88z"/>
            <glyph unicode="&#x2dc;" horiz-adv-x="1228"
                   d="M299 1346q29 54 77.5 92.5t108.5 38.5q35 0 77.5 -23t75 -50t70.5 -50t64 -23q89 0 143 107l41 -45q-30 -56 -78 -94.5t-106 -38.5q-34 0 -76.5 22.5t-75.5 50t-71 50t-64 22.5q-88 0 -145 -105z"/>
            <glyph unicode="&#x2000;" horiz-adv-x="919"/>
            <glyph unicode="&#x2001;" horiz-adv-x="1839"/>
            <glyph unicode="&#x2002;" horiz-adv-x="919"/>
            <glyph unicode="&#x2003;" horiz-adv-x="1839"/>
            <glyph unicode="&#x2004;" horiz-adv-x="613"/>
            <glyph unicode="&#x2005;" horiz-adv-x="459"/>
            <glyph unicode="&#x2006;" horiz-adv-x="306"/>
            <glyph unicode="&#x2007;" horiz-adv-x="306"/>
            <glyph unicode="&#x2008;" horiz-adv-x="229"/>
            <glyph unicode="&#x2009;" horiz-adv-x="367"/>
            <glyph unicode="&#x200a;" horiz-adv-x="102"/>
            <glyph unicode="&#x2010;" horiz-adv-x="1042" d="M152 580v79h739v-79h-739z"/>
            <glyph unicode="&#x2011;" horiz-adv-x="1042" d="M152 580v79h739v-79h-739z"/>
            <glyph unicode="&#x2012;" horiz-adv-x="1042" d="M152 580v79h739v-79h-739z"/>
            <glyph unicode="&#x2013;" horiz-adv-x="1228" d="M152 580v79h927v-79h-927z"/>
            <glyph unicode="&#x2014;" horiz-adv-x="1693" d="M152 580v79h1390v-79h-1390z"/>
            <glyph unicode="&#x2018;" horiz-adv-x="444"
                   d="M123 1006q0 77 45.5 213t79.5 194l59 -24l-96 -295q47 -3 72.5 -27.5t25.5 -60.5q0 -49 -24 -75t-68 -26t-69 29t-25 72z"/>
            <glyph unicode="&#x2019;" horiz-adv-x="436"
                   d="M141 926l101 295q-49 3 -74 27.5t-25 60.5q0 49 24 74.5t69 25.5q44 0 69 -28.5t25 -71.5q0 -73 -47.5 -209.5t-81.5 -198.5z"/>
            <glyph unicode="&#x201a;" horiz-adv-x="466"
                   d="M139 -322l101 295q-49 3 -74 27.5t-25 60.5q0 49 24 75t68 26t69.5 -29t25.5 -72q0 -73 -47 -209t-82 -198z"/>
            <glyph unicode="&#x201c;" horiz-adv-x="786"
                   d="M123 1014q0 75 45 208t78 191l53 -22l-94 -293q47 -1 71.5 -24.5t24.5 -59.5q0 -46 -22.5 -71t-65.5 -25q-42 0 -66 28t-24 68zM473 1014q0 75 45 208t78 191l53 -22l-94 -293q46 -1 71 -25t25 -59q0 -46 -23.5 -71t-64.5 -25q-42 0 -66 28t-24 68z"/>
            <glyph unicode="&#x201d;" horiz-adv-x="780"
                   d="M143 938l97 291q-47 3 -72 26.5t-25 59.5q0 94 88 94q43 0 67 -27t24 -67q0 -72 -45.5 -209t-77.5 -191zM492 1315q0 45 23 69.5t65 24.5q43 0 67.5 -27t24.5 -67q0 -72 -45.5 -209t-77.5 -191l-55 23l94 291q-46 3 -71 27t-25 59z"/>
            <glyph unicode="&#x201e;" horiz-adv-x="806"
                   d="M141 53q0 47 23 72t65 25t66 -28t24 -69q0 -72 -45 -207.5t-77 -191.5l-54 22l95 293q-47 1 -72 24.5t-25 59.5zM489 53q0 47 24 72t67 25q41 0 65.5 -28.5t24.5 -68.5q0 -72 -45.5 -207t-77.5 -192l-55 22l96 293q-48 1 -73.5 25t-25.5 59z"/>
            <glyph unicode="&#x2022;" horiz-adv-x="741"
                   d="M190 618q0 91 48 140t133 49t131.5 -48.5t46.5 -140.5q0 -94 -46 -141t-132 -47q-85 0 -133 47.5t-48 140.5z"/>
            <glyph unicode="&#x2026;" horiz-adv-x="1327"
                   d="M141 66q0 46 22.5 71t65.5 25t68 -25.5t25 -70.5q0 -47 -25 -72t-68 -25q-88 0 -88 97zM575 66q0 46 23 71t66 25t67.5 -25.5t24.5 -70.5q0 -47 -24.5 -72t-67.5 -25t-66 25t-23 72zM1010 66q0 46 22.5 71t65.5 25t67.5 -25.5t24.5 -70.5q0 -47 -24.5 -72t-67.5 -25 q-88 0 -88 97z"/>
            <glyph unicode="&#x202f;" horiz-adv-x="367"/>
            <glyph unicode="&#x2039;" horiz-adv-x="608"
                   d="M109 608v25l323 401h8l33 -37l-283 -376l285 -377l-35 -37h-8z"/>
            <glyph unicode="&#x203a;" horiz-adv-x="608" d="M133 995l35 39h8l324 -401v-25l-324 -401h-8l-33 37l283 377z"/>
            <glyph unicode="&#x205f;" horiz-adv-x="459"/>
            <glyph unicode="&#x20ac;" horiz-adv-x="1253"
                   d="M96 537v67h107q-2 29 -2 90q0 53 2 78h-107v68h111q30 278 170 425.5t358 147.5q121 0 214.5 -41.5t178.5 -116.5l-34 -73q-160 145 -355 145q-182 0 -297 -123t-141 -364h631l-31 -68h-608q-2 -25 -2 -78q0 -61 2 -90h532l-30 -67h-492q29 -230 143.5 -350.5 t292.5 -120.5q200 0 363 129l37 -76q-174 -139 -406 -139q-213 0 -352 143t-172 414h-113z"/>
            <glyph unicode="&#x2122;" horiz-adv-x="1675"
                   d="M123 1294v64h534v-64h-229v-563h-63v563h-242zM827 731v627h60l278 -340l277 340h59v-627h-63v529l-267 -328h-14l-266 328v-529h-64z"/>
            <glyph unicode="&#x25fc;" horiz-adv-x="1075" d="M0 0v1075h1075v-1075h-1075z"/>
            <glyph unicode="&#xfb01;" horiz-adv-x="1388"
                   d="M49 924v77h236v117q0 162 78.5 259.5t242.5 97.5q92 0 161 -36.5t110 -84.5l-35 -70q-97 107 -228 107q-239 0 -239 -273v-117h430v-77h-430v-924h-90v924h-236zM1098 1378q0 70 69 70q66 0 66 -70q0 -71 -66 -71q-69 0 -69 71zM1120 0v1071h90v-1071h-90z"/>
            <glyph unicode="&#xfb02;" horiz-adv-x="1484"
                   d="M49 924v77h236v117q0 162 78.5 259.5t242.5 97.5q92 0 161 -36.5t110 -84.5l-35 -70q-97 107 -228 107q-239 0 -239 -273v-117h430v-77h-430v-924h-90v924h-236zM1100 207v1247h90v-1233q0 -160 139 -160q68 0 139 48l21 -74q-76 -55 -182 -55q-96 0 -151.5 55.5 t-55.5 171.5z"/>
            </font>
</defs>
</svg>
