<?xml version="1.0" encoding="utf-8"?>
<!-- Generator: Adobe Illustrator 16.0.0, SVG Export Plug-In . SVG Version: 6.00 Build 0)  -->
<!DOCTYPE svg PUBLIC "-//W3C//DTD SVG 1.1//EN" "http://www.w3.org/Graphics/SVG/1.1/DTD/svg11.dtd">
<svg version="1.1" id="Capa_1" xmlns="http://www.w3.org/2000/svg" xmlns:xlink="http://www.w3.org/1999/xlink" x="0px" y="0px"
	 width="609px" height="4476.063px" viewBox="0 0 609 4476.063" enable-background="new 0 0 609 4476.063" xml:space="preserve">
<g>
	<g>
		<path fill="#59595B" d="M390.466,4179.932l-1.248-0.568c-3.192-1.454-6.206-2.729-9.181-3.887
			c-3.283-1.317-6.762-2.597-10.36-3.809c-2.479-0.813-5.118-1.629-8.319-2.572c-4.486-1.299-8.752-2.391-13.075-3.347
			c-1.513-0.313-3.056-0.612-4.566-0.888l-1.015-0.193c-2.678-0.523-5.354-0.982-7.92-1.359l-0.432-0.067l-0.267-0.108h-0.411
			l-0.512-0.066c-2.07-0.307-4.316-0.628-6.807-0.913l-7.74-0.635c-9.604-0.635-19.549-0.61-29.02,0.081l-7.244,0.622
			c-2.767,0.287-5.678,0.681-8.836,1.192l-0.926,0.129c-2.022,0.33-4.041,0.707-5.965,1.067c-2.084,0.37-4.232,0.795-6.593,1.306
			c-4.244,0.957-8.426,2.035-12.417,3.201c-3.145,0.903-6.311,1.904-9.442,2.985l-2.024,0.726
			c-6.277,2.223-12.581,4.795-18.769,7.662l-1.6,0.766l-0.749,0.387l-0.002,0.002c-70.871,34.256-116.614,106.963-116.614,185.465
			c0,1.631,0.098,3.219,0.192,4.752l0.691,15.896h410.385l0.663-14.987c0.125-1.771,0.24-3.682,0.24-5.658
			C510.586,4286.988,463.44,4213.52,390.466,4179.932z M124.328,4361.904c1.984-67.379,42.228-129.01,103.198-157.642l2.492-0.978
			l0.298-0.289c4.65-2.109,9.511-4.063,14.464-5.809l1.615-0.575c2.917-1.005,5.648-1.868,8.372-2.646
			c3.564-1.043,7.204-1.982,10.787-2.787c1.967-0.418,3.845-0.795,5.733-1.148l0.479-0.089c1.372-0.254,2.744-0.509,4.209-0.737
			l0.702-0.129c3.249-0.514,5.911-0.877,8.313-1.14l6.454-0.56c9.098-0.67,16.922-0.662,25.979-0.002l6.219,0.519
			c1.521,0.171,3.068,0.38,4.916,0.642l2.271,0.328c2.214,0.321,4.501,0.707,6.992,1.181l1.132,0.213
			c1.313,0.241,2.612,0.496,3.828,0.753c3.511,0.764,7.226,1.716,11.352,2.911c2.044,0.597,4.728,1.392,7.356,2.269
			c2.977,0.994,6.008,2.104,9.022,3.303c2.808,1.098,5.651,2.307,8.447,3.587l0.507,0.233
			c62.181,28.528,103.208,90.547,105.2,158.592H124.328z"/>
		<path fill="#59595B" d="M519.248,4397.757H89.721l-1.103-25.371c-0.097-1.587-0.205-3.376-0.205-5.276
			c0-82.181,47.924-158.465,122.111-194.395l0.937-0.479l1.713-0.819c6.453-2.99,13.06-5.687,19.635-8.016l2.099-0.752
			c3.29-1.136,6.636-2.193,9.944-3.144c4.147-1.212,8.528-2.342,12.979-3.345c2.549-0.552,4.825-1.003,7.044-1.396
			c1.691-0.317,3.912-0.733,6.103-1.091l1.049-0.149c3.328-0.537,6.368-0.946,9.292-1.249l0.176-0.017l7.371-0.633
			c9.862-0.72,20.364-0.748,30.407-0.086l0.158,0.012l8.061,0.666c2.516,0.288,4.778,0.608,6.854,0.915h1.693l0.981,0.399
			c2.44,0.369,5.016,0.816,7.601,1.321l0.967,0.185c1.511,0.275,3.134,0.589,4.725,0.919l0.13,0.028
			c4.529,1.001,9.01,2.147,13.697,3.505c3.327,0.98,6.062,1.826,8.652,2.675c3.823,1.287,7.471,2.628,10.919,4.011
			c3.164,1.232,6.321,2.569,9.653,4.087l1.247,0.568c76.542,35.229,125.976,112.268,125.974,196.28c0,2.239-0.122,4.316-0.256,6.23
			L519.248,4397.757z M108.871,4377.757h391.243l0.255-5.691c0.112-1.585,0.216-3.283,0.216-4.954
			c0.002-76.229-44.863-146.137-114.299-178.096l-1.212-0.552c-3.004-1.368-5.838-2.568-8.664-3.669l-0.096-0.038
			c-3.114-1.249-6.421-2.464-9.828-3.611c-2.318-0.76-4.87-1.549-7.955-2.458c-4.203-1.217-8.256-2.255-12.341-3.159
			c-1.414-0.293-2.855-0.571-4.267-0.829l-1.093-0.208c-2.571-0.502-5.079-0.933-7.502-1.289l-1.633-0.244
			c-1.938-0.286-4.042-0.588-6.322-0.852l-7.497-0.615c-9.08-0.596-18.594-0.57-27.494,0.077l-7.085,0.608
			c-2.547,0.267-5.225,0.629-8.183,1.108l-1.029,0.146c-1.924,0.316-3.886,0.684-5.621,1.009c-2.064,0.367-4.102,0.771-6.319,1.25
			c-3.96,0.894-7.935,1.918-11.727,3.026c-2.997,0.861-5.987,1.806-8.93,2.82l-1.966,0.705c-6.009,2.128-12.014,4.578-17.885,7.297
			l-2.257,1.109c-67.41,32.583-110.966,101.849-110.966,176.462c0,1.322,0.084,2.688,0.173,4.134l0.01,0.184L108.871,4377.757z
			 M494.962,4371.904H114.029l0.303-10.294c2.09-70.986,44.853-136.302,108.943-166.399l2.909-1.321
			c4.919-2.231,10.057-4.295,15.271-6.133l1.682-0.6c3.089-1.063,5.995-1.981,8.885-2.807c3.694-1.081,7.531-2.072,11.339-2.928
			l0.113-0.024c2.078-0.442,4.031-0.833,5.971-1.196l0.496-0.092c1.484-0.274,2.877-0.531,4.355-0.765l0.818-0.146
			c3.386-0.536,6.179-0.918,8.787-1.203l0.224-0.022l6.583-0.569c9.612-0.708,17.744-0.71,27.439-0.003l0.104,0.008l6.504,0.547
			c1.766,0.198,3.544,0.443,5.202,0.678l2.299,0.332c2.375,0.345,4.804,0.755,7.431,1.254l1.112,0.21
			c1.36,0.249,2.748,0.521,4.046,0.796c3.801,0.826,7.729,1.833,12.067,3.09c2.31,0.675,5.018,1.48,7.738,2.388
			c3.159,1.056,6.372,2.231,9.555,3.497c2.907,1.137,5.925,2.418,8.914,3.787l0.526,0.242
			c65.334,29.975,108.914,95.679,111.014,167.382L494.962,4371.904z M134.947,4351.904h339.101
			c-5.504-60.099-43.405-114.109-98.753-139.503l-0.52-0.239c-2.628-1.203-5.295-2.336-7.906-3.356
			c-2.89-1.149-5.748-2.195-8.549-3.131c-2.4-0.801-4.881-1.539-6.99-2.154c-3.881-1.124-7.379-2.022-10.676-2.739
			c-1.074-0.227-2.284-0.464-3.509-0.688l-1.174-0.222c-2.356-0.447-4.502-0.81-6.579-1.111l-2.266-0.327
			c-1.662-0.235-3.079-0.428-4.464-0.586l-6.017-0.502c-8.671-0.629-15.818-0.63-24.405,0.001l-6.274,0.544
			c-2.224,0.245-4.647,0.578-7.608,1.045l-0.843,0.151c-1.335,0.208-2.586,0.44-3.836,0.672l-0.569,0.105
			c-1.744,0.327-3.522,0.683-5.418,1.085c-3.378,0.76-6.782,1.641-10.117,2.616c-2.591,0.739-5.146,1.547-7.875,2.486l-1.565,0.557
			c-4.145,1.462-8.208,3.069-12.123,4.795l-0.472,0.458l-4.055,1.591C177.426,4238.969,140.392,4292.532,134.947,4351.904z"/>
	</g>
	<g>
		<path fill="#59595B" d="M258.762,4143.469l3.417,1.231c1.179,0.455,2.554,0.978,3.941,1.401
			c12.06,3.797,24.725,5.772,37.605,5.873l1.059,0.021c4.338,0,8.743-0.225,13.081-0.667c1.529-0.149,2.99-0.394,4.369-0.623
			l3.043-0.461c2.08-0.269,3.83-0.545,5.539-0.88c1.355-0.282,2.647-0.626,3.811-0.941l3.348-0.854
			c1.603-0.39,3.418-0.828,5.219-1.386c1.201-0.385,2.341-0.809,3.151-1.117l2.683-0.969c1.822-0.629,3.944-1.374,6.104-2.275
			c0.799-0.348,1.585-0.726,2.355-1.104l0.836-0.41c2.615-1.164,5.414-2.447,8.179-3.936l1.782-1.063
			c2.683-1.519,5.867-3.373,9.143-5.606c1.604-1.084,3.081-2.246,4.678-3.521l5.146-4.002
			c29.897-24.746,47.054-60.702,47.077-98.661l0.051-0.976l0.004-0.155c0-71.459-58.136-129.596-129.594-129.596
			c-68.218,0-124.971,53.342-129.203,121.418l-0.11,1.618c-0.146,1.903-0.296,4.173-0.296,6.559
			c-0.015,52.195,31.043,99.059,79.131,119.395C255.786,4142.404,257.299,4142.945,258.762,4143.469z M304.77,3918.628
			c57.158,0,103.708,46.094,103.816,102.767l-0.057,0.947l-0.006,0.178c-0.034,30.816-13.817,59.922-37.817,79.86l-4.74,3.612
			c-0.975,0.793-1.981,1.611-3.215,2.463c-2.348,1.588-4.874,3.049-7.254,4.392l-1.437,0.872c-2.088,1.12-4.334,2.135-6.543,3.118
			l-2.554,1.231c-1.354,0.558-2.831,1.069-4.26,1.566l-3.511,1.266l-0.299,0.112c-0.475,0.181-0.951,0.362-1.437,0.51
			c-0.906,0.282-1.844,0.513-2.837,0.755l-4.733,1.202l-0.161,0.044c-0.738,0.201-1.468,0.4-2.072,0.532
			c-1.04,0.204-2.108,0.354-3.238,0.513l-4.464,0.666l-0.183,0.031c-0.824,0.141-1.604,0.273-2.475,0.357
			c-3.213,0.334-6.479,0.518-9.658,0.545l-0.979-0.008c-10.545-0.006-20.916-1.582-30.824-4.686
			c-0.597-0.188-1.215-0.423-1.868-0.674l-4.373-1.604l-0.338-0.119c-1.025-0.357-1.994-0.697-2.912-1.084
			c-38.482-16.279-63.348-53.805-63.348-95.601c0-1.496,0.108-2.972,0.222-4.534l0.138-2.024
			C204.753,3961.327,250.178,3918.628,304.77,3918.628z"/>
		<path fill="#59595B" d="M304.784,4161.996l-1.199-0.022c-13.867-0.114-27.481-2.245-40.468-6.334
			c-1.567-0.478-3.107-1.058-4.432-1.569l-3.314-1.193c-1.504-0.539-3.22-1.152-4.949-1.882
			c-51.803-21.907-85.26-72.389-85.245-128.611c0-2.709,0.165-5.221,0.326-7.32l0.104-1.53
			c4.556-73.288,65.692-130.741,139.18-130.741c76.973,0,139.594,62.622,139.594,139.596l-0.055,1.399
			c-0.104,40.847-18.574,79.505-50.701,106.096l-0.236,0.19l-5.094,3.961c-1.692,1.353-3.372,2.672-5.271,3.955
			c-3.508,2.392-6.876,4.357-9.715,5.966l-2.068,1.224c-3.011,1.62-5.948,2.971-8.681,4.189l-0.669,0.328
			c-0.804,0.394-1.76,0.855-2.771,1.295l-0.138,0.06c-2.396,1-4.673,1.802-6.626,2.477l-2.539,0.917
			c-0.874,0.332-2.166,0.812-3.574,1.263c-2.148,0.665-4.172,1.157-5.798,1.553l-3.276,0.836c-1.26,0.341-2.729,0.729-4.315,1.06
			l-0.115,0.023c-1.868,0.366-3.8,0.675-6.07,0.97l-2.865,0.434c-1.496,0.249-3.145,0.521-4.966,0.699
			C314.204,4161.754,309.462,4161.996,304.784,4161.996z M304.787,3902.792c-62.948,0-115.317,49.213-119.223,112.038l-0.113,1.675
			c-0.138,1.81-0.273,3.845-0.273,5.882c-0.014,48.17,28.651,91.419,73.026,110.185c1.208,0.51,2.523,0.979,3.915,1.478l3.66,1.322
			c1.072,0.413,2.207,0.844,3.263,1.167c11.192,3.523,22.86,5.344,34.761,5.437l1.081,0.021c3.971-0.004,7.996-0.211,11.967-0.615
			c1.221-0.119,2.427-0.32,3.703-0.532l0.184-0.03l3.26-0.491c1.851-0.238,3.389-0.481,4.833-0.763
			c1.063-0.224,2.152-0.514,3.18-0.792l0.144-0.038l3.569-0.909c1.499-0.364,3.049-0.74,4.513-1.194
			c0.903-0.29,1.894-0.659,2.552-0.91l2.978-1.076c1.658-0.572,3.579-1.246,5.442-2.021c0.636-0.279,1.261-0.582,1.875-0.884
			l1.174-0.567c2.364-1.053,4.883-2.204,7.317-3.504l1.784-1.062c2.5-1.416,5.458-3.137,8.435-5.166
			c1.344-0.908,2.637-1.928,4.07-3.073l5.125-3.986c27.521-22.837,43.317-55.949,43.339-90.869l0.055-1.303
			C424.282,3956.348,370.671,3902.792,304.787,3902.792z M305.64,4136.168l-1.062-0.008c-11.485-0.007-22.859-1.736-33.733-5.143
			c-0.835-0.263-1.582-0.543-2.394-0.854l-4.521-1.653c-1.031-0.36-2.236-0.78-3.47-1.3
			c-42.204-17.854-69.465-58.994-69.465-104.816c0-1.854,0.125-3.576,0.247-5.242l0.137-1.997
			c3.722-59.709,53.531-106.526,113.392-106.526c62.64,0,113.698,50.578,113.816,112.748l0.001,0.308l-0.063,1.063
			c-0.103,33.712-15.193,65.531-41.427,87.325l-0.329,0.263l-4.615,3.517c-0.994,0.809-2.219,1.798-3.72,2.834
			c-2.667,1.804-5.355,3.366-7.882,4.793l-1.763,1.053c-2.328,1.249-4.763,2.354-7.064,3.38l-2.953,1.405
			c-1.583,0.651-3.231,1.226-4.688,1.731l-3.67,1.326c-0.533,0.203-1.235,0.471-2.047,0.718c-1.167,0.363-2.341,0.649-3.376,0.901
			l-4.632,1.179c-0.865,0.235-1.727,0.471-2.573,0.655l-0.205,0.042c-1.322,0.26-2.627,0.442-3.777,0.604l-4.345,0.65
			c-0.926,0.158-1.969,0.336-3.204,0.455c-3.453,0.359-7.021,0.561-10.531,0.591H305.64z M304.77,3928.628
			c-49.323,0-90.364,38.579-93.435,87.829l-0.142,2.083c-0.108,1.493-0.198,2.727-0.198,3.854c0,37.77,22.47,71.68,57.244,86.391
			c0.638,0.269,1.488,0.565,2.309,0.852l0.488,0.173l4.516,1.657c0.448,0.172,0.869,0.34,1.278,0.468
			c8.934,2.799,18.301,4.222,27.834,4.227l0.967,0.008c2.854-0.027,5.756-0.192,8.63-0.491c0.585-0.057,1.133-0.15,1.827-0.269
			l0.389-0.064l4.464-0.666c1.023-0.144,1.917-0.269,2.679-0.414c0.432-0.099,0.937-0.241,1.449-0.381l0.357-0.096l4.733-1.202
			c0.879-0.215,1.692-0.413,2.325-0.61c0.33-0.101,0.587-0.206,0.845-0.305l4.089-1.479c1.257-0.438,2.47-0.859,3.487-1.267
			l2.545-1.223c1.999-0.89,3.938-1.765,5.661-2.677l1.472-0.887c2.2-1.242,4.519-2.581,6.565-3.966
			c0.837-0.578,1.647-1.238,2.506-1.937l0.25-0.197l4.569-3.481c21.611-18.031,34.019-44.28,34.05-72.048l0.062-1.395
			C398.324,3970.089,356.303,3928.628,304.77,3928.628z"/>
	</g>
	<g>
		<path fill="#59595B" d="M425.875,2350.579c31.874-36.646,51.169-84.46,51.169-136.717c0-115.035-93.563-208.487-208.479-208.487
			c-115.035,0-208.493,93.564-208.493,208.487s93.563,208.485,208.493,208.485c52.25,0,100.063-19.295,136.708-51.176
			L524.1,2489.999c2.822,2.82,6.612,4.338,10.306,4.338c3.678,0,7.48-1.412,10.297-4.338c5.636-5.637,5.636-14.959,0-20.594
			L425.875,2350.579z M268.453,2393.186c-98.771,0-179.21-80.444-179.21-179.322c0-98.877,80.438-179.217,179.21-179.217
			c98.876,0,179.209,80.444,179.209,179.217C447.662,2312.627,367.329,2393.186,268.453,2393.186z"/>
		<path fill="#59595B" d="M534.405,2504.337c-6.422,0-12.754-2.647-17.374-7.265l-112.374-112.374
			c-38.607,30.791-86.575,47.649-136.092,47.649c-120.477,0-218.493-98.012-218.493-218.485
			c0-120.474,98.016-218.487,218.493-218.487c120.469,0,218.479,98.013,218.479,218.487c0,49.522-16.854,97.489-47.644,136.101
			l112.373,112.371c4.614,4.613,7.155,10.781,7.155,17.367c0,6.553-2.516,12.691-7.086,17.299
			C547.318,2501.664,540.968,2504.337,534.405,2504.337z M405.748,2357.504l125.423,125.424c0.882,0.882,2.092,1.409,3.234,1.409
			c0.562,0,1.986-0.124,3.093-1.273l0.133-0.135c1.129-1.13,1.298-2.507,1.298-3.228c0-0.72-0.168-2.096-1.297-3.225
			l-125.424-125.422l6.122-7.038c31.413-36.116,48.714-82.34,48.714-130.154c0-109.446-89.037-198.487-198.479-198.487
			c-109.449,0-198.493,89.041-198.493,198.487c0,109.445,89.043,198.485,198.493,198.485c47.812,0,94.032-17.303,130.145-48.721
			L405.748,2357.504z M268.453,2403.186c-104.331,0-189.21-84.93-189.21-189.322c0-104.334,84.879-189.217,189.21-189.217
			c104.33,0,189.209,84.882,189.209,189.217C457.662,2318.256,372.783,2403.186,268.453,2403.186z M268.453,2044.646
			c-93.303,0-169.21,75.91-169.21,169.217c0,93.364,75.907,169.322,169.21,169.322c93.302,0,169.209-75.958,169.209-169.322
			C437.662,2120.557,361.755,2044.646,268.453,2044.646z"/>
	</g>
</g>
<g>
	<path fill="#59595B" d="M479.593,255.857c-0.257-5.271-4.591-9.397-9.872-9.397h-71.799v-36.042
		c0-51.515-41.911-93.43-93.429-93.43c-51.517,0-93.429,41.915-93.429,93.43v36.042h-71.783c-5.277,0-9.614,4.127-9.871,9.399
		l-17.392,365.233c-0.117,2.68,0.873,5.329,2.719,7.272c1.848,1.947,4.455,3.063,7.15,3.063h365.228
		c2.676,0,5.278-1.111,7.143-3.056c1.854-1.931,2.845-4.585,2.725-7.289L479.593,255.857z M304.495,136.732
		c40.628,0,73.684,33.056,73.684,73.686v36.041H230.81v-36.041C230.81,169.785,263.863,136.732,304.495,136.732z M220.936,297.122
		c5.444,0,9.874-4.429,9.874-9.874v-21.047h147.369v21.047c0,5.443,4.431,9.874,9.874,9.874s9.873-4.429,9.873-9.874v-21.047h62.381
		l16.445,345.479H132.239l16.444-345.479h62.382v21.047C211.065,292.694,215.492,297.122,220.936,297.122z"/>
	<path fill="#59595B" d="M487.114,641.428H121.887c-5.426,0-10.676-2.252-14.403-6.179c-3.702-3.898-5.691-9.218-5.456-14.594
		l17.394-365.271c0.517-10.616,9.24-18.923,19.86-18.923h61.783v-26.042c0-57.032,46.398-103.43,103.429-103.43
		c57.031,0,103.429,46.398,103.429,103.43v26.042h61.799c10.62,0,19.344,8.307,19.86,18.91l17.389,365.237
		c0.243,5.457-1.763,10.8-5.501,14.692C497.736,639.191,492.503,641.428,487.114,641.428z M142.727,601.681h323.538l-15.493-325.479
		h-42.846v11.047c0,10.958-8.915,19.874-19.873,19.874c-10.959,0-19.874-8.916-19.874-19.874v-11.047H240.81v11.047
		c0,10.958-8.916,19.874-19.874,19.874c-10.957,0-19.871-8.916-19.871-19.874v-11.047h-42.847L142.727,601.681z M240.81,236.459
		h127.369v-26.041c0-35.117-28.568-63.686-63.684-63.686c-35.116,0-63.685,28.569-63.685,63.686V236.459z"/>
</g>
</svg>
