<?xml version="1.0" encoding="utf-8"?>
<!-- Generator: Adobe Illustrator 14.0.0, SVG Export Plug-In . SVG Version: 6.00 Build 43363)  -->
<!DOCTYPE svg PUBLIC "-//W3C//DTD SVG 1.1//EN" "http://www.w3.org/Graphics/SVG/1.1/DTD/svg11.dtd">
<svg version="1.1" id="Capa_1" xmlns="http://www.w3.org/2000/svg" xmlns:xlink="http://www.w3.org/1999/xlink" x="0px" y="0px"
	 width="608.999px" height="1799.125px" viewBox="1177.141 272.32 608.999 1799.125"
	 enable-background="new 1177.141 272.32 608.999 1799.125" xml:space="preserve">
<g>
	<g>
		<rect x="1259.141" y="272.32" fill="#90AEBA" width="444.999" height="22.25"/>
		<rect x="1259.141" y="405.82" fill="#90AEBA" width="444.999" height="22.25"/>
		<rect x="1259.141" y="539.32" fill="#90AEBA" width="444.999" height="22.249"/>
	</g>
</g>
<g>
	<path fill="#90AEBA" d="M1601.486,1471.006c-0.289-5.927-5.164-10.569-11.102-10.569h-80.75v-40.535
		c0-57.94-47.139-105.079-105.079-105.079s-105.078,47.139-105.078,105.079v40.535h-80.734c-5.935,0-10.811,4.642-11.101,10.571
		l-19.561,410.771c-0.131,3.012,0.984,5.993,3.06,8.179c2.078,2.191,5.009,3.446,8.041,3.446h410.763
		c3.009,0,5.938-1.251,8.034-3.437c2.083-2.172,3.2-5.156,3.065-8.197L1601.486,1471.006z M1404.556,1337.029
		c45.695,0,82.872,37.176,82.872,82.872v40.535h-165.745v-40.535C1321.683,1374.205,1358.858,1337.029,1404.556,1337.029z
		 M1310.58,1517.416c6.122,0,11.103-4.98,11.103-11.103v-23.671h165.745v23.671c0,6.122,4.981,11.103,11.104,11.103
		c6.121,0,11.104-4.98,11.104-11.103v-23.671h70.159l18.495,388.555h-387.467l18.495-388.555h70.16v23.671
		C1299.478,1512.436,1304.457,1517.416,1310.58,1517.416z"/>
	<g>
		<circle fill="#90AEBA" cx="1559.74" cy="1830.733" r="213.06"/>
	</g>
</g>
</svg>
