<?xml version="1.0" encoding="utf-8"?>
<!-- Generator: Adobe Illustrator 14.0.0, SVG Export Plug-In . SVG Version: 6.00 Build 43363)  -->
<!DOCTYPE svg PUBLIC "-//W3C//DTD SVG 1.1//EN" "http://www.w3.org/Graphics/SVG/1.1/DTD/svg11.dtd">
<svg version="1.1" id="Capa_1" xmlns="http://www.w3.org/2000/svg" xmlns:xlink="http://www.w3.org/1999/xlink" x="0px" y="0px"
	 width="609px" height="4476.063px" viewBox="0 0 609 4476.063" enable-background="new 0 0 609 4476.063" xml:space="preserve">
<g>
	<g>
		<rect x="82" y="19.652" fill="#90AEBA" width="445" height="22.25"/>
		<rect x="82" y="153.152" fill="#90AEBA" width="445" height="22.25"/>
		<rect x="82" y="286.652" fill="#90AEBA" width="445" height="22.249"/>
	</g>
</g>
<g>
	<path fill="#90AEBA" d="M425.55,1218.338c-0.289-5.928-5.164-10.569-11.102-10.569h-80.75v-40.535
		c0-57.939-47.139-105.079-105.08-105.079c-57.939,0-105.078,47.14-105.078,105.079v40.535H42.808
		c-5.936,0-10.813,4.642-11.102,10.571l-19.561,410.771c-0.131,3.013,0.982,5.993,3.059,8.179c2.078,2.191,5.01,3.446,8.041,3.446
		h410.764c3.01,0,5.938-1.251,8.033-3.437c2.084-2.172,3.201-5.156,3.066-8.197L425.55,1218.338z M228.621,1084.361
		c45.695,0,82.871,37.177,82.871,82.872v40.535H145.748v-40.535C145.748,1121.536,182.923,1084.361,228.621,1084.361z
		 M134.644,1264.748c6.123,0,11.104-4.98,11.104-11.104v-23.671h165.744v23.671c0,6.122,4.982,11.104,11.105,11.104
		c6.121,0,11.104-4.98,11.104-11.104v-23.671h70.158l18.496,388.555H34.888l18.494-388.555h70.16v23.671
		C123.542,1259.768,128.521,1264.748,134.644,1264.748z"/>
	<g>
		<circle fill="#90AEBA" cx="383.804" cy="1578.065" r="213.06"/>
	</g>
</g>
<path stroke="#FFFFFF" stroke-width="11" d="M304.546,2861.07l95.09-95.165c7.038-7.038,18.419-7.038,25.382,0
	c6.964,7.038,6.964,18.419,0,25.457L317.275,2899.18c-6.813,6.813-17.745,6.963-24.783,0.524L184,2791.437
	c-3.519-3.52-5.241-8.161-5.241-12.729s1.723-9.21,5.241-12.729c7.038-7.037,18.419-7.037,25.382,0L304.546,2861.07z"/>
<g>
	<polygon fill="#1A171B" points="258.434,4137.464 285.417,4137.464 280.245,3989.959 253.261,3989.959 	"/>
	<g>
		<polygon fill="#1A171B" points="350.565,4137.464 323.583,4137.464 328.754,3989.959 355.738,3989.959 		"/>
		<path fill="#1A171B" d="M366.85,3925.785v-31.901c0-7.456-6.043-13.5-13.5-13.5h-97.701c-7.457,0-13.5,6.044-13.5,13.5v31.901
			H156.8v27h27.832l20.212,234.785c0.601,6.98,6.444,12.342,13.45,12.342h172.412c7.006,0,12.849-5.361,13.45-12.342l20.212-234.785
			H452.2v-27H366.85z M269.149,3907.384h70.701v18.401h-70.701V3907.384z M378.317,4172.912H230.682l-18.95-220.127h185.535
			L378.317,4172.912z"/>
	</g>
</g>
</svg>
