<?xml version="1.0" encoding="utf-8"?>
<!-- Generator: Adobe Illustrator 14.0.0, SVG Export Plug-In . SVG Version: 6.00 Build 43363)  -->
<!DOCTYPE svg PUBLIC "-//W3C//DTD SVG 1.1//EN" "http://www.w3.org/Graphics/SVG/1.1/DTD/svg11.dtd">
<svg version="1.1" id="Capa_1" xmlns="http://www.w3.org/2000/svg" xmlns:xlink="http://www.w3.org/1999/xlink" x="0px" y="0px"
	 width="595.28px" height="283.46px" viewBox="0 0 595.28 283.46" enable-background="new 0 0 595.28 283.46" xml:space="preserve">
<g>
	<path fill="#59595B" d="M325.985,75.589c0-15.633-12.713-28.346-28.345-28.346c-15.633,0-28.346,12.713-28.346,28.346v23.622
		h-23.622v89.762h103.935V99.211h-23.622V75.589z M278.743,75.589c0-10.422,8.476-18.897,18.897-18.897
		c10.421,0,18.897,8.476,18.897,18.897v23.622h-37.794V75.589z M340.159,108.66v70.865h-85.038V108.66h14.173h56.691H340.159z"/>
	<path fill="#59595B" d="M292.916,155.232v10.119c0,2.613,2.117,4.725,4.725,4.725c2.607,0,4.724-2.111,4.724-4.725v-10.119
		c8.126-2.111,14.173-9.443,14.173-18.226c0-10.422-8.476-18.897-18.897-18.897c-10.422,0-18.897,8.476-18.897,18.897
		C278.743,145.789,284.79,153.121,292.916,155.232z M297.64,127.557c5.21,0,9.449,4.238,9.449,9.449s-4.238,9.449-9.449,9.449
		c-5.211,0-9.449-4.238-9.449-9.449S292.429,127.557,297.64,127.557z"/>
</g>
</svg>
