<?xml version="1.0" encoding="utf-8"?>
<!-- Generator: Adobe Illustrator 14.0.0, SVG Export Plug-In . SVG Version: 6.00 Build 43363)  -->
<!DOCTYPE svg PUBLIC "-//W3C//DTD SVG 1.1//EN" "http://www.w3.org/Graphics/SVG/1.1/DTD/svg11.dtd">
<svg version="1.1" id="Calque_1" xmlns="http://www.w3.org/2000/svg" xmlns:xlink="http://www.w3.org/1999/xlink" x="0px" y="0px"
	 width="18px" height="25px" viewBox="0 0 18 25" enable-background="new 0 0 18 25" xml:space="preserve">
<g>
	<path fill="#59585A" d="M9.105,0.56h-0.22c-4.27,0-7.75,3.48-7.75,7.75v8.38c0,4.271,3.48,7.75,7.75,7.75h0.23
		c4.27,0,7.75-3.479,7.75-7.75V8.31C16.855,4.041,13.385,0.56,9.105,0.56z M9.105,22.541h-0.22c-3.22,0-5.84-2.62-5.84-5.84V8.32
		c0-3.22,2.62-5.84,5.84-5.84h0.23c3.22,0,5.849,2.62,5.849,5.84v8.381C14.955,19.92,12.335,22.541,9.105,22.541z"/>
	<path fill="#59585A" d="M9.055,5.46c-0.53,0-0.95,0.43-0.95,0.95v5.1c0,0.52,0.43,0.95,0.95,0.95s0.95-0.431,0.95-0.95v-5.1
		C10.005,5.89,9.575,5.46,9.055,5.46z"/>
</g>
</svg>
